<?xml version="1.0" encoding="UTF-8"?>
<svg width="24px" height="24px" viewBox="0 0 24 24" version="1.1" xmlns="http://www.w3.org/2000/svg" xmlns:xlink="http://www.w3.org/1999/xlink">
    <!-- Generator: Sketch 58 (84663) - https://sketch.com -->
    <title>Atoms/ic_error</title>
    <desc>Created with Sketch.</desc>
    <g id="Atoms/ic_error" stroke="none" stroke-width="1" fill="none" fill-rule="evenodd">
        <rect id="Surface" x="0" y="0" width="24" height="24"></rect>
        <path d="M12,17 C13.1045695,17 14,17.8954305 14,19 C14,20.1045695 13.1045695,21 12,21 C10.8954305,21 10,20.1045695 10,19 C10,17.8954305 10.8954305,17 12,17 Z M12,3.4 C12.8836556,3.4 13.6,4.1163444 13.6,5 L13.6,5 L13.6,13 C13.6,13.8836556 12.8836556,14.6 12,14.6 C11.1163444,14.6 10.4,13.8836556 10.4,13 L10.4,13 L10.4,5 C10.4,4.1163444 11.1163444,3.4 12,3.4 Z" id="Combined-Shape" fill="#D72C40"></path>
    </g>
</svg>