<?xml version="1.0" encoding="UTF-8"?>
<svg width="50px" height="50px" viewBox="0 0 50 50" version="1.1" xmlns="http://www.w3.org/2000/svg" xmlns:xlink="http://www.w3.org/1999/xlink">
    <!-- Generator: Sketch 58 (84663) - https://sketch.com -->
    <title>Corporate/ic_impulsor_white</title>
    <desc>Created with Sketch.</desc>
    <defs>
        <linearGradient x1="-12.5%" y1="49.950544%" x2="113%" y2="49.950544%" id="linearGradient-1">
            <stop stop-color="#10ACE4" stop-opacity="0.2" offset="0%"></stop>
            <stop stop-color="#10ACE4" stop-opacity="0.8" offset="100%"></stop>
        </linearGradient>
        <linearGradient x1="-2.24114747%" y1="50.0184191%" x2="102.151502%" y2="50.0184191%" id="linearGradient-2">
            <stop stop-color="#10ACE4" stop-opacity="0.2" offset="0%"></stop>
            <stop stop-color="#10ACE4" stop-opacity="0.8" offset="100%"></stop>
        </linearGradient>
        <linearGradient x1="-2.89268152%" y1="50.1074156%" x2="102.892682%" y2="50.1074156%" id="linearGradient-3">
            <stop stop-color="#10ACE4" stop-opacity="0.2" offset="0%"></stop>
            <stop stop-color="#10ACE4" stop-opacity="0.8" offset="100%"></stop>
        </linearGradient>
        <linearGradient x1="-3.99680256%" y1="49.9996604%" x2="103.996803%" y2="49.9996604%" id="linearGradient-4">
            <stop stop-color="#10ACE4" stop-opacity="0.2" offset="0%"></stop>
            <stop stop-color="#10ACE4" stop-opacity="0.8" offset="100%"></stop>
        </linearGradient>
        <linearGradient x1="-6.35727908%" y1="50%" x2="106.357279%" y2="50%" id="linearGradient-5">
            <stop stop-color="#10ACE4" stop-opacity="0.2" offset="0%"></stop>
            <stop stop-color="#10ACE4" stop-opacity="0.8" offset="100%"></stop>
        </linearGradient>
        <linearGradient x1="50.049456%" y1="-12.5%" x2="50.049456%" y2="113%" id="linearGradient-6">
            <stop stop-color="#10ACE4" stop-opacity="0.2" offset="0%"></stop>
            <stop stop-color="#10ACE4" stop-opacity="0.8" offset="100%"></stop>
        </linearGradient>
        <linearGradient x1="49.9815809%" y1="-2.24114747%" x2="49.9815809%" y2="102.151502%" id="linearGradient-7">
            <stop stop-color="#10ACE4" stop-opacity="0.2" offset="0%"></stop>
            <stop stop-color="#10ACE4" stop-opacity="0.8" offset="100%"></stop>
        </linearGradient>
        <linearGradient x1="49.8925844%" y1="-2.89268152%" x2="49.8925844%" y2="102.892682%" id="linearGradient-8">
            <stop stop-color="#10ACE4" stop-opacity="0.2" offset="0%"></stop>
            <stop stop-color="#10ACE4" stop-opacity="0.8" offset="100%"></stop>
        </linearGradient>
        <linearGradient x1="50.0003396%" y1="-3.99680256%" x2="50.0003396%" y2="103.996803%" id="linearGradient-9">
            <stop stop-color="#10ACE4" stop-opacity="0.2" offset="0%"></stop>
            <stop stop-color="#10ACE4" stop-opacity="0.8" offset="100%"></stop>
        </linearGradient>
        <linearGradient x1="50%" y1="-6.35727908%" x2="50%" y2="106.357279%" id="linearGradient-10">
            <stop stop-color="#10ACE4" stop-opacity="0.2" offset="0%"></stop>
            <stop stop-color="#10ACE4" stop-opacity="0.8" offset="100%"></stop>
        </linearGradient>
        <linearGradient x1="112.5%" y1="50.049456%" x2="-13%" y2="50.049456%" id="linearGradient-11">
            <stop stop-color="#10ACE4" stop-opacity="0.2" offset="0%"></stop>
            <stop stop-color="#10ACE4" stop-opacity="0.8" offset="100%"></stop>
        </linearGradient>
        <linearGradient x1="102.241147%" y1="49.9815809%" x2="-2.15150157%" y2="49.9815809%" id="linearGradient-12">
            <stop stop-color="#10ACE4" stop-opacity="0.2" offset="0%"></stop>
            <stop stop-color="#10ACE4" stop-opacity="0.8" offset="100%"></stop>
        </linearGradient>
        <linearGradient x1="102.748047%" y1="49.8925844%" x2="-3.03731559%" y2="49.8925844%" id="linearGradient-13">
            <stop stop-color="#10ACE4" stop-opacity="0.2" offset="0%"></stop>
            <stop stop-color="#10ACE4" stop-opacity="0.8" offset="100%"></stop>
        </linearGradient>
        <linearGradient x1="103.996803%" y1="50.0003396%" x2="-3.99680256%" y2="50.0003396%" id="linearGradient-14">
            <stop stop-color="#10ACE4" stop-opacity="0.2" offset="0%"></stop>
            <stop stop-color="#10ACE4" stop-opacity="0.8" offset="100%"></stop>
        </linearGradient>
        <linearGradient x1="106.357279%" y1="50%" x2="-6.35727908%" y2="50%" id="linearGradient-15">
            <stop stop-color="#10ACE4" stop-opacity="0.2" offset="0%"></stop>
            <stop stop-color="#10ACE4" stop-opacity="0.8" offset="100%"></stop>
        </linearGradient>
        <linearGradient x1="49.950544%" y1="112.5%" x2="49.950544%" y2="-13%" id="linearGradient-16">
            <stop stop-color="#10ACE4" stop-opacity="0.2" offset="0%"></stop>
            <stop stop-color="#10ACE4" stop-opacity="0.8" offset="100%"></stop>
        </linearGradient>
        <linearGradient x1="50.0184191%" y1="102.241147%" x2="50.0184191%" y2="-2.15150157%" id="linearGradient-17">
            <stop stop-color="#10ACE4" stop-opacity="0.2" offset="0%"></stop>
            <stop stop-color="#10ACE4" stop-opacity="0.8" offset="100%"></stop>
        </linearGradient>
        <linearGradient x1="50.1074156%" y1="102.748047%" x2="50.1074156%" y2="-3.03731559%" id="linearGradient-18">
            <stop stop-color="#10ACE4" stop-opacity="0.2" offset="0%"></stop>
            <stop stop-color="#10ACE4" stop-opacity="0.8" offset="100%"></stop>
        </linearGradient>
        <linearGradient x1="49.9996604%" y1="103.996803%" x2="49.9996604%" y2="-3.99680256%" id="linearGradient-19">
            <stop stop-color="#10ACE4" stop-opacity="0.2" offset="0%"></stop>
            <stop stop-color="#10ACE4" stop-opacity="0.8" offset="100%"></stop>
        </linearGradient>
        <linearGradient x1="50%" y1="106.357279%" x2="50%" y2="-6.35727908%" id="linearGradient-20">
            <stop stop-color="#10ACE4" stop-opacity="0.2" offset="0%"></stop>
            <stop stop-color="#10ACE4" stop-opacity="0.8" offset="100%"></stop>
        </linearGradient>
    </defs>
    <g id="Corporate/ic_impulsor_white" stroke="none" stroke-width="1" fill="none" fill-rule="evenodd">
        <g id="Logo" transform="translate(24.500000, 25.000000) scale(-1, 1) translate(-24.500000, -25.000000) translate(-1.000000, 0.000000)">
            <g id="Group" opacity="0.7" transform="translate(14.753855, 27.458563)" stroke-linecap="round" stroke-width="1.02081649">
                <path d="M2.52454851,0.299175391 C3.13202014,2.00328329 4.28437819,3.45957577 5.80318294,4.44254965" id="Path" stroke="url(#linearGradient-1)" opacity="0.8"></path>
                <path d="M5.89334538,21.7455428 C12.2685212,22.8899683 18.8379401,21.4780291 24.1799289,17.8152798" id="Path" stroke="url(#linearGradient-2)" opacity="0.8"></path>
                <path d="M1.65980868,16.1513728 C6.10029103,18.1937563 11.1231119,18.5875037 15.8276077,17.2620103" id="Path" stroke="url(#linearGradient-3)" opacity="0.8"></path>
                <path d="M0.192619773,10.4916302 C3.06575468,12.728566 6.6044762,13.9403581 10.2457326,13.9342197 L10.4465489,13.9342197" id="Path" stroke="url(#linearGradient-4)" opacity="0.8"></path>
                <path d="M0.631137127,5.20483215 C2.27216385,7.26634992 4.53206813,8.74613467 7.07775207,9.42607398" id="Path" stroke="url(#linearGradient-5)" opacity="0.8"></path>
            </g>
            <path d="M39.8722929,45.8148178 C39.3438273,45.8160075 38.8737177,45.4793605 38.7046522,44.9786668 C38.5355868,44.4779731 38.7053903,43.9252515 39.1264036,43.6058379 C42.8365601,40.7983067 45.6213474,36.9444238 47.1221733,32.5404467 C47.349614,31.9102041 48.0398109,31.5781133 48.6742141,31.7936763 C49.3086174,32.0092394 49.6536132,32.6930771 49.4500037,33.3314172 C47.7951784,38.2060058 44.7174829,42.4728109 40.614084,45.5812151 C40.3986097,45.737294 40.1383193,45.8192639 39.8722929,45.8148178 Z" id="Path" fill="#10ACE4" fill-rule="nonzero"></path>
            <path d="M31.622429,45.626376 C31.0182511,45.633128 30.4986551,45.1999443 30.3966776,44.6043956 C30.2947,44.0088469 30.6405694,43.4274671 31.2125997,43.2328932 C35.0690373,41.9050482 38.4098331,39.3973006 40.7616225,36.0649787 C41.1520633,35.5093079 41.9190382,35.3753625 42.474709,35.7658033 C43.0303798,36.1562441 43.1643252,36.923219 42.7738844,37.4788898 C40.1243759,41.2310275 36.36242,44.0553617 32.0199635,45.5525271 C31.8924309,45.598886 31.7581035,45.6238128 31.622429,45.626376 L31.622429,45.626376 Z" id="Path" fill="#10ACE4" fill-rule="nonzero"></path>
            <path d="M26.2577635,42.573068 C25.5787361,42.5979657 25.0080921,42.0676888 24.9831944,41.3886613 C24.9582967,40.7096339 25.4885736,40.1389899 26.167601,40.1140922 C29.2586735,39.8847129 32.2032122,38.7051797 34.5977898,36.7370988 C34.9358252,36.4434406 35.4067827,36.3567791 35.8272093,36.5108717 C36.2476359,36.6649643 36.5510449,37.0354426 36.6192487,37.4779935 C36.6874526,37.9205444 36.5096654,38.3651824 36.1551411,38.6387067 C33.3703325,40.9273767 29.946581,42.3000263 26.3520242,42.5689697 L26.2577635,42.573068 Z" id="Path" fill="#10ACE4" fill-rule="nonzero"></path>
            <path d="M24.9995875,38.5239656 C24.2539647,38.5243239 23.5096045,38.4626366 22.7742144,38.3395313 C22.1042407,38.2263601 21.6528631,37.5914957 21.7660343,36.9215219 C21.8792056,36.2515482 22.51407,35.8001706 23.1840437,35.9133419 C23.7839001,36.0147249 24.3912241,36.0654494 24.9995875,36.0649787 C26.3763965,36.0669383 27.7414082,35.8111723 29.0241113,35.3108928 C29.6567385,35.0641795 30.3695847,35.3770246 30.616298,36.0096518 C30.8630113,36.642279 30.5501663,37.3551253 29.9175391,37.6018386 C28.350112,38.213356 26.6820788,38.5261122 24.9995875,38.5239656 Z" id="Path" fill="#10ACE4" fill-rule="nonzero"></path>
            <path d="M24.097963,34.376482 L23.9586211,34.376482 C22.9043108,34.2616173 21.8773105,33.9677927 20.9217859,33.5076438 C20.5257255,33.3173006 20.2612975,32.9301204 20.2281094,32.4919503 C20.1949212,32.0537803 20.3980151,31.6311888 20.7608875,31.3833621 C21.1237598,31.1355353 21.5912817,31.100124 21.9873421,31.2904673 C22.6924836,31.6310938 23.4506531,31.8487037 24.2291084,31.9338993 C24.9081358,31.9701141 25.4292384,32.5499325 25.3930236,33.2289599 C25.3568088,33.9079873 24.7769904,34.4290899 24.097963,34.3928751 L24.097963,34.376482 Z" id="Path" fill="#10ACE4" fill-rule="nonzero"></path>
            <g id="Group" opacity="0.7" transform="translate(0.000000, 14.753855)" stroke-linecap="round" stroke-width="1.02081649">
                <path d="M22.2414363,2.52454851 C20.5373284,3.13202014 19.0810359,4.28437819 18.098062,5.80318294" id="Path" stroke="url(#linearGradient-6)" opacity="0.8"></path>
                <path d="M0.795068849,5.89334538 C-0.349356639,12.2685212 1.06258257,18.8379401 4.72533187,24.1799289" id="Path" stroke="url(#linearGradient-7)" opacity="0.8"></path>
                <path d="M6.38923884,1.65980868 C4.34685534,6.10029103 3.95310804,11.1231119 5.27860143,15.8276077" id="Path" stroke="url(#linearGradient-8)" opacity="0.8"></path>
                <path d="M12.0489815,0.192619773 C9.8120457,3.06575468 8.60025358,6.6044762 8.60639199,10.2457326 L8.60639199,10.4465489" id="Path" stroke="url(#linearGradient-9)" opacity="0.8"></path>
                <path d="M17.3357795,0.631137127 C15.2742618,2.27216385 13.794477,4.53206813 13.1145377,7.07775207" id="Path" stroke="url(#linearGradient-10)" opacity="0.8"></path>
            </g>
            <path d="M4.18435404,39.8722929 C4.18316756,39.3438273 4.51981453,38.8737177 5.02050824,38.7046522 C5.52120196,38.5355868 6.07392348,38.7053903 6.39333713,39.1264036 C9.2008683,42.8365601 13.0547512,45.6213474 17.4587283,47.1221733 C18.0889709,47.349614 18.4210617,48.0398109 18.2054987,48.6742141 C17.9899356,49.3086174 17.3060979,49.6536132 16.6677578,49.4500037 C11.799155,47.7922928 7.53839723,44.7148409 4.43435306,40.614084 C4.2724311,40.4006599 4.18464822,40.1401893 4.18435404,39.8722929 L4.18435404,39.8722929 Z" id="Path" fill="#10ACE4" fill-rule="nonzero"></path>
            <path d="M4.37279899,31.622429 C4.36604701,31.0182511 4.79923066,30.4986551 5.3947794,30.3966776 C5.99032814,30.2947 6.57170792,30.6405694 6.7662818,31.2125997 C8.09412681,35.0690373 10.6018744,38.4098331 13.9341963,40.7616225 C14.2936523,41.0141934 14.4910584,41.439346 14.4520536,41.8769295 C14.4130487,42.3145129 14.1435588,42.6980479 13.745098,42.8830604 C13.3466372,43.068073 12.8797412,43.0264553 12.5202852,42.7738844 C8.76814754,40.1243759 5.94381329,36.36242 4.44664794,32.0199635 C4.40028897,31.8924309 4.37536223,31.7581035 4.37279899,31.622429 L4.37279899,31.622429 Z" id="Path" fill="#10ACE4" fill-rule="nonzero"></path>
            <path d="M7.42610698,26.2577635 C7.40120933,25.5787361 7.93148626,25.0080921 8.61051367,24.9831944 C9.28954107,24.9582967 9.8601851,25.4885736 9.8850828,26.167601 C10.1144621,29.2586735 11.2939953,32.2032122 13.2620763,34.5977898 C13.6683622,35.124391 13.582212,35.8786127 13.0676396,36.3000298 C12.5530671,36.7214468 11.7966605,36.6572502 11.3604683,36.1551411 C9.07179828,33.3703325 7.69914875,29.946581 7.43020527,26.3520242 L7.42610698,26.2577635 Z" id="Path" fill="#10ACE4" fill-rule="nonzero"></path>
            <path d="M11.4752094,24.9995875 C11.4748511,24.2539647 11.5365384,23.5096045 11.6596437,22.7742144 C11.7328526,22.3408174 12.031715,21.9793985 12.4436523,21.8261009 C12.8555896,21.6728032 13.3180187,21.7509162 13.6567471,22.0310155 C13.9954754,22.3111148 14.1590421,22.7506467 14.0858332,23.1840437 C13.9844501,23.7839001 13.9337256,24.3912241 13.9341963,24.9995875 C13.9322367,26.3763965 14.1880027,27.7414082 14.6882822,29.0241113 C14.9349955,29.6567385 14.6221505,30.3695848 13.9895233,30.6162981 C13.3568961,30.8630114 12.6440497,30.5501663 12.3973364,29.9175391 C11.785819,28.350112 11.4730628,26.6820788 11.4752094,24.9995875 L11.4752094,24.9995875 Z" id="Path" fill="#10ACE4" fill-rule="nonzero"></path>
            <path d="M15.622693,24.097963 C15.622693,24.0528818 15.622693,24.0078006 15.622693,23.9586211 C15.7375577,22.9043108 16.0313823,21.8773105 16.4915312,20.9217859 C16.6818744,20.5257255 17.0690546,20.2612975 17.5072247,20.2281094 C17.9453947,20.1949213 18.3679862,20.3980151 18.6158129,20.7608875 C18.8636397,21.1237598 18.899051,21.5912817 18.7087077,21.9873421 C18.3680812,22.6924836 18.1504713,23.4506531 18.0652757,24.2291084 C18.0290609,24.9081358 17.4492425,25.4292384 16.7702151,25.3930236 C16.0911877,25.3568088 15.5700851,24.7769905 15.6062999,24.097963 L15.622693,24.097963 Z" id="Path" fill="#10ACE4" fill-rule="nonzero"></path>
            <g id="Group" opacity="0.7" transform="translate(11.065391, 0.000000)" stroke-linecap="round" stroke-width="1.02081649">
                <path d="M21.6553804,22.2414363 C21.0479088,20.5373284 19.8955507,19.0810359 18.376746,18.098062" id="Path" stroke="url(#linearGradient-11)" opacity="0.8"></path>
                <path d="M18.2865835,0.795068849 C11.9114077,-0.349356639 5.34198878,1.06258257 0,4.72533187" id="Path" stroke="url(#linearGradient-12)" opacity="0.8"></path>
                <path d="M22.5406117,6.38923884 C18.1001293,4.34685534 13.0773085,3.95310804 8.37281267,5.27860143" id="Path" stroke="url(#linearGradient-13)" opacity="0.8"></path>
                <path d="M23.9873091,12.0489815 C21.1141742,9.8120457 17.5754527,8.60025358 13.9341963,8.60639199 L13.73338,8.60639199" id="Path" stroke="url(#linearGradient-14)" opacity="0.8"></path>
                <path d="M23.5487918,17.3357795 C21.9077651,15.2742618 19.6478608,13.794477 17.1021768,13.1145377" id="Path" stroke="url(#linearGradient-15)" opacity="0.8"></path>
            </g>
            <path d="M10.1268821,4.18435404 C10.6553477,4.18316756 11.1254574,4.51981453 11.2945228,5.02050824 C11.4635882,5.52120196 11.2937848,6.07392348 10.8727714,6.39333713 C7.15694017,9.20405477 4.3689663,13.0641067 2.86880512,17.4751215 C2.64136447,18.1053641 1.95116757,18.4374549 1.31676431,18.2218918 C0.682361053,18.0063288 0.33736523,17.3224911 0.54097468,16.6841509 C2.1980201,11.8085106 5.27865864,7.54158354 9.38509105,4.43435306 C9.59851516,4.2724311 9.85898567,4.18464822 10.1268821,4.18435404 Z" id="Path" fill="#10ACE4" fill-rule="nonzero"></path>
            <path d="M18.376746,4.37279899 C18.980924,4.36604701 19.5005199,4.79923066 19.6024975,5.3947794 C19.704475,5.99032814 19.3586056,6.57170792 18.7865753,6.7662818 C14.9301377,8.09412681 11.5893419,10.6018744 9.2375525,13.9341963 C8.84711172,14.4898671 8.08013679,14.6238124 7.52446603,14.2333717 C6.96879527,13.8429309 6.83484988,13.075956 7.22529062,12.5202852 C9.87479915,8.76814754 13.636755,5.94381329 17.9792115,4.44664794 C18.1067441,4.40028897 18.2410715,4.37536223 18.376746,4.37279899 Z" id="Path" fill="#10ACE4" fill-rule="nonzero"></path>
            <path d="M23.7414115,7.42610698 C24.420439,7.40120933 24.991083,7.93148626 25.0159806,8.61051367 C25.0408783,9.28954107 24.5106014,9.8601851 23.831574,9.8850828 C20.7405015,10.1144621 17.7959628,11.2939953 15.4013852,13.2620763 C14.874784,13.6683622 14.1205623,13.582212 13.6991453,13.0676396 C13.2777282,12.5530671 13.3419248,11.7966605 13.8440339,11.3604683 C16.6288425,9.07179828 20.052594,7.69914875 23.6471508,7.43020527 L23.7414115,7.42610698 Z" id="Path" fill="#10ACE4" fill-rule="nonzero"></path>
            <path d="M24.9995875,11.4752094 C25.7452103,11.4748511 26.4895705,11.5365384 27.2249606,11.6596437 C27.8949343,11.7728149 28.3463119,12.4076793 28.2331407,13.0776531 C28.1199695,13.7476268 27.485105,14.1990044 26.8151313,14.0858332 C26.2152749,13.9844501 25.6079509,13.9337256 24.9995875,13.9341963 C23.6227785,13.9322367 22.2577668,14.1880027 20.9750637,14.6882822 C20.5658257,14.8478778 20.1025309,14.7770242 19.7596981,14.5024114 C19.4168653,14.2277986 19.246579,13.7911468 19.3129842,13.3569385 C19.3793895,12.9227302 19.6723978,12.5569319 20.0816359,12.3973364 C21.649063,11.785819 23.3170963,11.4730628 24.9995875,11.4752094 Z" id="Path" fill="#10ACE4" fill-rule="nonzero"></path>
            <path d="M25.901212,15.622693 L26.0405539,15.622693 C27.1023578,15.737849 28.1364978,16.0345057 29.0978805,16.4997278 C29.493941,16.690071 29.758369,17.0772512 29.7915571,17.5154213 C29.8247452,17.9535913 29.6216514,18.3761828 29.258779,18.6240095 C28.8959067,18.8718363 28.4283848,18.9072476 28.0323244,18.7169043 C27.3271829,18.3762778 26.5690133,18.1586679 25.7905581,18.0734723 C25.1115306,18.0372575 24.590428,17.4574391 24.6266428,16.7784117 C24.6628576,16.0993843 25.242676,15.5782817 25.9217034,15.6144965 L25.901212,15.622693 Z" id="Path" fill="#10ACE4" fill-rule="nonzero"></path>
            <g id="Group" opacity="0.7" transform="translate(27.458563, 11.065391)" stroke-linecap="round" stroke-width="1.02081649">
                <path d="M0.299175391,21.6553804 C2.00328329,21.0479088 3.45957577,19.8955507 4.44254965,18.376746" id="Path" stroke="url(#linearGradient-16)" opacity="0.8"></path>
                <path d="M21.7455428,18.2865835 C22.8899683,11.9114077 21.4780291,5.34198878 17.8152798,0" id="Path" stroke="url(#linearGradient-17)" opacity="0.8"></path>
                <path d="M16.1513728,22.5406117 C18.1937563,18.1001293 18.5875037,13.0773085 17.2620103,8.37281267" id="Path" stroke="url(#linearGradient-18)" opacity="0.8"></path>
                <path d="M10.4916302,23.9873091 C12.728566,21.1141742 13.9403581,17.5754527 13.9342197,13.9341963 L13.9342197,13.73338" id="Path" stroke="url(#linearGradient-19)" opacity="0.8"></path>
                <path d="M5.20483215,23.5487918 C7.26634992,21.9077651 8.74613467,19.6478608 9.42607398,17.1021768" id="Path" stroke="url(#linearGradient-20)" opacity="0.8"></path>
            </g>
            <path d="M45.814821,10.1268821 C45.8160075,10.6553477 45.4793605,11.1254574 44.9786668,11.2945228 C44.4779731,11.4635882 43.9252515,11.2937848 43.6058379,10.8727714 C40.7983067,7.16261489 36.9444238,4.37782763 32.5404467,2.87700171 C31.9102041,2.64956105 31.5781133,1.95936416 31.7936763,1.3249609 C32.0092394,0.690557639 32.6930771,0.345561816 33.3314172,0.549171267 C38.20002,2.2068822 42.4607778,5.28433407 45.564822,9.38509105 C45.7267439,9.59851516 45.8145268,9.85898567 45.814821,10.1268821 Z" id="Path" fill="#10ACE4" fill-rule="nonzero"></path>
            <path d="M45.626376,18.376746 C45.633128,18.980924 45.1999443,19.5005199 44.6043956,19.6024975 C44.0088469,19.704475 43.4274671,19.3586056 43.2328932,18.7865753 C41.9050482,14.9301377 39.3973006,11.5893419 36.0649787,9.2375525 C35.5093079,8.84711173 35.3753625,8.08013678 35.7658033,7.52446601 C36.1562441,6.96879524 36.923219,6.83484985 37.4788898,7.22529062 C41.2310275,9.87479915 44.0553617,13.636755 45.5525271,17.9792115 C45.598886,18.1067441 45.6238128,18.2410715 45.626376,18.376746 Z" id="Path" fill="#10ACE4" fill-rule="nonzero"></path>
            <path d="M42.573068,23.7414115 C42.5979657,24.420439 42.0676888,24.991083 41.3886613,25.0159806 C40.7096339,25.0408783 40.1389899,24.5106014 40.1140922,23.831574 C39.8847129,20.7405015 38.7051797,17.7959628 36.7370988,15.4013852 C36.4434406,15.0633498 36.3567791,14.5923923 36.5108717,14.1719657 C36.6649643,13.7515391 37.0354426,13.4481301 37.4779935,13.3799263 C37.9205444,13.3117224 38.3651824,13.4895096 38.6387067,13.8440339 C40.9273767,16.6288425 42.3000263,20.052594 42.5689697,23.6471508 L42.573068,23.7414115 Z" id="Path" fill="#10ACE4" fill-rule="nonzero"></path>
            <path d="M38.5239656,24.9995875 C38.5243239,25.7452103 38.4626366,26.4895705 38.3395313,27.2249606 C38.2663224,27.6583576 37.96746,28.0197765 37.5555227,28.1730742 C37.1435854,28.3263719 36.6811563,28.2482589 36.3424279,27.9681595 C36.0036996,27.6880602 35.8401329,27.2485283 35.9133419,26.8151313 C36.0147249,26.2152749 36.0654494,25.6079509 36.0649787,24.9995875 C36.0669383,23.6227785 35.8111723,22.2577668 35.3108928,20.9750637 C35.0641795,20.3424365 35.3770246,19.6295902 36.0096518,19.382877 C36.642279,19.1361637 37.3551253,19.4490087 37.6018386,20.0816359 C38.213356,21.649063 38.5261122,23.3170963 38.5239656,24.9995875 L38.5239656,24.9995875 Z" id="Path" fill="#10ACE4" fill-rule="nonzero"></path>
            <path d="M34.376482,25.901212 C34.376482,25.9462932 34.376482,25.9913744 34.376482,26.0405539 C34.2616173,27.0948643 33.9677927,28.1218645 33.5076438,29.0773891 C33.3173006,29.4734495 32.9301204,29.7378776 32.4919503,29.7710657 C32.0537803,29.8042538 31.6311888,29.6011599 31.3833621,29.2382876 C31.1355353,28.8754152 31.100124,28.4078933 31.2904673,28.0118329 C31.6310938,27.3066914 31.8487037,26.5485219 31.9338993,25.7700666 C31.9701141,25.0910392 32.5499325,24.5699366 33.2289599,24.6061514 C33.9079873,24.6423662 34.4290899,25.2221846 34.3928751,25.901212 L34.376482,25.901212 Z" id="Path" fill="#10ACE4" fill-rule="nonzero"></path>
        </g>
    </g>
</svg>