<?xml version="1.0" encoding="UTF-8"?>
<svg width="358px" height="50px" viewBox="0 0 358 50" version="1.1" xmlns="http://www.w3.org/2000/svg" xmlns:xlink="http://www.w3.org/1999/xlink">
    <!-- Generator: Sketch 58 (84663) - https://sketch.com -->
    <title>Corporate/ic_logo_white</title>
    <desc>Created with Sketch.</desc>
    <defs>
        <linearGradient x1="-12.5%" y1="49.950544%" x2="113%" y2="49.950544%" id="linearGradient-1">
            <stop stop-color="#10ACE4" stop-opacity="0.2" offset="0%"></stop>
            <stop stop-color="#10ACE4" stop-opacity="0.8" offset="100%"></stop>
        </linearGradient>
        <linearGradient x1="-2.24114747%" y1="50.0184191%" x2="102.151502%" y2="50.0184191%" id="linearGradient-2">
            <stop stop-color="#10ACE4" stop-opacity="0.2" offset="0%"></stop>
            <stop stop-color="#10ACE4" stop-opacity="0.8" offset="100%"></stop>
        </linearGradient>
        <linearGradient x1="-2.89268152%" y1="50.1074156%" x2="102.892682%" y2="50.1074156%" id="linearGradient-3">
            <stop stop-color="#10ACE4" stop-opacity="0.2" offset="0%"></stop>
            <stop stop-color="#10ACE4" stop-opacity="0.8" offset="100%"></stop>
        </linearGradient>
        <linearGradient x1="-3.99680256%" y1="49.9996604%" x2="103.996803%" y2="49.9996604%" id="linearGradient-4">
            <stop stop-color="#10ACE4" stop-opacity="0.2" offset="0%"></stop>
            <stop stop-color="#10ACE4" stop-opacity="0.8" offset="100%"></stop>
        </linearGradient>
        <linearGradient x1="-6.35727908%" y1="50%" x2="106.357279%" y2="50%" id="linearGradient-5">
            <stop stop-color="#10ACE4" stop-opacity="0.2" offset="0%"></stop>
            <stop stop-color="#10ACE4" stop-opacity="0.8" offset="100%"></stop>
        </linearGradient>
        <linearGradient x1="50.049456%" y1="-12.5%" x2="50.049456%" y2="113%" id="linearGradient-6">
            <stop stop-color="#10ACE4" stop-opacity="0.2" offset="0%"></stop>
            <stop stop-color="#10ACE4" stop-opacity="0.8" offset="100%"></stop>
        </linearGradient>
        <linearGradient x1="49.9815809%" y1="-2.24114747%" x2="49.9815809%" y2="102.151502%" id="linearGradient-7">
            <stop stop-color="#10ACE4" stop-opacity="0.2" offset="0%"></stop>
            <stop stop-color="#10ACE4" stop-opacity="0.8" offset="100%"></stop>
        </linearGradient>
        <linearGradient x1="49.8925844%" y1="-2.89268152%" x2="49.8925844%" y2="102.892682%" id="linearGradient-8">
            <stop stop-color="#10ACE4" stop-opacity="0.2" offset="0%"></stop>
            <stop stop-color="#10ACE4" stop-opacity="0.8" offset="100%"></stop>
        </linearGradient>
        <linearGradient x1="50.0003396%" y1="-3.99680256%" x2="50.0003396%" y2="103.996803%" id="linearGradient-9">
            <stop stop-color="#10ACE4" stop-opacity="0.2" offset="0%"></stop>
            <stop stop-color="#10ACE4" stop-opacity="0.8" offset="100%"></stop>
        </linearGradient>
        <linearGradient x1="50%" y1="-6.35727908%" x2="50%" y2="106.357279%" id="linearGradient-10">
            <stop stop-color="#10ACE4" stop-opacity="0.2" offset="0%"></stop>
            <stop stop-color="#10ACE4" stop-opacity="0.8" offset="100%"></stop>
        </linearGradient>
        <linearGradient x1="112.5%" y1="50.049456%" x2="-13%" y2="50.049456%" id="linearGradient-11">
            <stop stop-color="#10ACE4" stop-opacity="0.2" offset="0%"></stop>
            <stop stop-color="#10ACE4" stop-opacity="0.8" offset="100%"></stop>
        </linearGradient>
        <linearGradient x1="102.241147%" y1="49.9815809%" x2="-2.15150157%" y2="49.9815809%" id="linearGradient-12">
            <stop stop-color="#10ACE4" stop-opacity="0.2" offset="0%"></stop>
            <stop stop-color="#10ACE4" stop-opacity="0.8" offset="100%"></stop>
        </linearGradient>
        <linearGradient x1="102.748047%" y1="49.8925844%" x2="-3.03731559%" y2="49.8925844%" id="linearGradient-13">
            <stop stop-color="#10ACE4" stop-opacity="0.2" offset="0%"></stop>
            <stop stop-color="#10ACE4" stop-opacity="0.8" offset="100%"></stop>
        </linearGradient>
        <linearGradient x1="103.996803%" y1="50.0003396%" x2="-3.99680256%" y2="50.0003396%" id="linearGradient-14">
            <stop stop-color="#10ACE4" stop-opacity="0.2" offset="0%"></stop>
            <stop stop-color="#10ACE4" stop-opacity="0.8" offset="100%"></stop>
        </linearGradient>
        <linearGradient x1="106.357279%" y1="50%" x2="-6.35727908%" y2="50%" id="linearGradient-15">
            <stop stop-color="#10ACE4" stop-opacity="0.2" offset="0%"></stop>
            <stop stop-color="#10ACE4" stop-opacity="0.8" offset="100%"></stop>
        </linearGradient>
        <linearGradient x1="49.950544%" y1="112.5%" x2="49.950544%" y2="-13%" id="linearGradient-16">
            <stop stop-color="#10ACE4" stop-opacity="0.2" offset="0%"></stop>
            <stop stop-color="#10ACE4" stop-opacity="0.8" offset="100%"></stop>
        </linearGradient>
        <linearGradient x1="50.0184191%" y1="102.241147%" x2="50.0184191%" y2="-2.15150157%" id="linearGradient-17">
            <stop stop-color="#10ACE4" stop-opacity="0.2" offset="0%"></stop>
            <stop stop-color="#10ACE4" stop-opacity="0.8" offset="100%"></stop>
        </linearGradient>
        <linearGradient x1="50.1074156%" y1="102.748047%" x2="50.1074156%" y2="-3.03731559%" id="linearGradient-18">
            <stop stop-color="#10ACE4" stop-opacity="0.2" offset="0%"></stop>
            <stop stop-color="#10ACE4" stop-opacity="0.8" offset="100%"></stop>
        </linearGradient>
        <linearGradient x1="49.9996604%" y1="103.996803%" x2="49.9996604%" y2="-3.99680256%" id="linearGradient-19">
            <stop stop-color="#10ACE4" stop-opacity="0.2" offset="0%"></stop>
            <stop stop-color="#10ACE4" stop-opacity="0.8" offset="100%"></stop>
        </linearGradient>
        <linearGradient x1="50%" y1="106.357279%" x2="50%" y2="-6.35727908%" id="linearGradient-20">
            <stop stop-color="#10ACE4" stop-opacity="0.2" offset="0%"></stop>
            <stop stop-color="#10ACE4" stop-opacity="0.8" offset="100%"></stop>
        </linearGradient>
    </defs>
    <g id="Corporate/ic_logo_white" stroke="none" stroke-width="1" fill="none" fill-rule="evenodd">
        <g id="Logo" transform="translate(24.500000, 25.000000) scale(-1, 1) translate(-24.500000, -25.000000) translate(-1.000000, 0.000000)">
            <g id="Group" opacity="0.7" transform="translate(14.753855, 27.458563)" stroke-linecap="round" stroke-width="1.02081649">
                <path d="M2.52454851,0.299175391 C3.13202014,2.00328329 4.28437819,3.45957577 5.80318294,4.44254965" id="Path" stroke="url(#linearGradient-1)" opacity="0.8"></path>
                <path d="M5.89334538,21.7455428 C12.2685212,22.8899683 18.8379401,21.4780291 24.1799289,17.8152798" id="Path" stroke="url(#linearGradient-2)" opacity="0.8"></path>
                <path d="M1.65980868,16.1513728 C6.10029103,18.1937563 11.1231119,18.5875037 15.8276077,17.2620103" id="Path" stroke="url(#linearGradient-3)" opacity="0.8"></path>
                <path d="M0.192619773,10.4916302 C3.06575468,12.728566 6.6044762,13.9403581 10.2457326,13.9342197 L10.4465489,13.9342197" id="Path" stroke="url(#linearGradient-4)" opacity="0.8"></path>
                <path d="M0.631137127,5.20483215 C2.27216385,7.26634992 4.53206813,8.74613467 7.07775207,9.42607398" id="Path" stroke="url(#linearGradient-5)" opacity="0.8"></path>
            </g>
            <path d="M39.8722929,45.8148178 C39.3438273,45.8160075 38.8737177,45.4793605 38.7046522,44.9786668 C38.5355868,44.4779731 38.7053903,43.9252515 39.1264036,43.6058379 C42.8365601,40.7983067 45.6213474,36.9444238 47.1221733,32.5404467 C47.349614,31.9102041 48.0398109,31.5781133 48.6742141,31.7936763 C49.3086174,32.0092394 49.6536132,32.6930771 49.4500037,33.3314172 C47.7951784,38.2060058 44.7174829,42.4728109 40.614084,45.5812151 C40.3986097,45.737294 40.1383193,45.8192639 39.8722929,45.8148178 Z" id="Path" fill="#10ACE4" fill-rule="nonzero"></path>
            <path d="M31.622429,45.626376 C31.0182511,45.633128 30.4986551,45.1999443 30.3966776,44.6043956 C30.2947,44.0088469 30.6405694,43.4274671 31.2125997,43.2328932 C35.0690373,41.9050482 38.4098331,39.3973006 40.7616225,36.0649787 C41.1520633,35.5093079 41.9190382,35.3753625 42.474709,35.7658033 C43.0303798,36.1562441 43.1643252,36.923219 42.7738844,37.4788898 C40.1243759,41.2310275 36.36242,44.0553617 32.0199635,45.5525271 C31.8924309,45.598886 31.7581035,45.6238128 31.622429,45.626376 L31.622429,45.626376 Z" id="Path" fill="#10ACE4" fill-rule="nonzero"></path>
            <path d="M26.2577635,42.573068 C25.5787361,42.5979657 25.0080921,42.0676888 24.9831944,41.3886613 C24.9582967,40.7096339 25.4885736,40.1389899 26.167601,40.1140922 C29.2586735,39.8847129 32.2032122,38.7051797 34.5977898,36.7370988 C34.9358252,36.4434406 35.4067827,36.3567791 35.8272093,36.5108717 C36.2476359,36.6649643 36.5510449,37.0354426 36.6192487,37.4779935 C36.6874526,37.9205444 36.5096654,38.3651824 36.1551411,38.6387067 C33.3703325,40.9273767 29.946581,42.3000263 26.3520242,42.5689697 L26.2577635,42.573068 Z" id="Path" fill="#10ACE4" fill-rule="nonzero"></path>
            <path d="M24.9995875,38.5239656 C24.2539647,38.5243239 23.5096045,38.4626366 22.7742144,38.3395313 C22.1042407,38.2263601 21.6528631,37.5914957 21.7660343,36.9215219 C21.8792056,36.2515482 22.51407,35.8001706 23.1840437,35.9133419 C23.7839001,36.0147249 24.3912241,36.0654494 24.9995875,36.0649787 C26.3763965,36.0669383 27.7414082,35.8111723 29.0241113,35.3108928 C29.6567385,35.0641795 30.3695847,35.3770246 30.616298,36.0096518 C30.8630113,36.642279 30.5501663,37.3551253 29.9175391,37.6018386 C28.350112,38.213356 26.6820788,38.5261122 24.9995875,38.5239656 Z" id="Path" fill="#10ACE4" fill-rule="nonzero"></path>
            <path d="M24.097963,34.376482 L23.9586211,34.376482 C22.9043108,34.2616173 21.8773105,33.9677927 20.9217859,33.5076438 C20.5257255,33.3173006 20.2612975,32.9301204 20.2281094,32.4919503 C20.1949212,32.0537803 20.3980151,31.6311888 20.7608875,31.3833621 C21.1237598,31.1355353 21.5912817,31.100124 21.9873421,31.2904673 C22.6924836,31.6310938 23.4506531,31.8487037 24.2291084,31.9338993 C24.9081358,31.9701141 25.4292384,32.5499325 25.3930236,33.2289599 C25.3568088,33.9079873 24.7769904,34.4290899 24.097963,34.3928751 L24.097963,34.376482 Z" id="Path" fill="#10ACE4" fill-rule="nonzero"></path>
            <g id="Group" opacity="0.7" transform="translate(0.000000, 14.753855)" stroke-linecap="round" stroke-width="1.02081649">
                <path d="M22.2414363,2.52454851 C20.5373284,3.13202014 19.0810359,4.28437819 18.098062,5.80318294" id="Path" stroke="url(#linearGradient-6)" opacity="0.8"></path>
                <path d="M0.795068849,5.89334538 C-0.349356639,12.2685212 1.06258257,18.8379401 4.72533187,24.1799289" id="Path" stroke="url(#linearGradient-7)" opacity="0.8"></path>
                <path d="M6.38923884,1.65980868 C4.34685534,6.10029103 3.95310804,11.1231119 5.27860143,15.8276077" id="Path" stroke="url(#linearGradient-8)" opacity="0.8"></path>
                <path d="M12.0489815,0.192619773 C9.8120457,3.06575468 8.60025358,6.6044762 8.60639199,10.2457326 L8.60639199,10.4465489" id="Path" stroke="url(#linearGradient-9)" opacity="0.8"></path>
                <path d="M17.3357795,0.631137127 C15.2742618,2.27216385 13.794477,4.53206813 13.1145377,7.07775207" id="Path" stroke="url(#linearGradient-10)" opacity="0.8"></path>
            </g>
            <path d="M4.18435404,39.8722929 C4.18316756,39.3438273 4.51981453,38.8737177 5.02050824,38.7046522 C5.52120196,38.5355868 6.07392348,38.7053903 6.39333713,39.1264036 C9.2008683,42.8365601 13.0547512,45.6213474 17.4587283,47.1221733 C18.0889709,47.349614 18.4210617,48.0398109 18.2054987,48.6742141 C17.9899356,49.3086174 17.3060979,49.6536132 16.6677578,49.4500037 C11.799155,47.7922928 7.53839723,44.7148409 4.43435306,40.614084 C4.2724311,40.4006599 4.18464822,40.1401893 4.18435404,39.8722929 L4.18435404,39.8722929 Z" id="Path" fill="#10ACE4" fill-rule="nonzero"></path>
            <path d="M4.37279899,31.622429 C4.36604701,31.0182511 4.79923066,30.4986551 5.3947794,30.3966776 C5.99032814,30.2947 6.57170792,30.6405694 6.7662818,31.2125997 C8.09412681,35.0690373 10.6018744,38.4098331 13.9341963,40.7616225 C14.2936523,41.0141934 14.4910584,41.439346 14.4520536,41.8769295 C14.4130487,42.3145129 14.1435588,42.6980479 13.745098,42.8830604 C13.3466372,43.068073 12.8797412,43.0264553 12.5202852,42.7738844 C8.76814754,40.1243759 5.94381329,36.36242 4.44664794,32.0199635 C4.40028897,31.8924309 4.37536223,31.7581035 4.37279899,31.622429 L4.37279899,31.622429 Z" id="Path" fill="#10ACE4" fill-rule="nonzero"></path>
            <path d="M7.42610698,26.2577635 C7.40120933,25.5787361 7.93148626,25.0080921 8.61051367,24.9831944 C9.28954107,24.9582967 9.8601851,25.4885736 9.8850828,26.167601 C10.1144621,29.2586735 11.2939953,32.2032122 13.2620763,34.5977898 C13.6683622,35.124391 13.582212,35.8786127 13.0676396,36.3000298 C12.5530671,36.7214468 11.7966605,36.6572502 11.3604683,36.1551411 C9.07179828,33.3703325 7.69914875,29.946581 7.43020527,26.3520242 L7.42610698,26.2577635 Z" id="Path" fill="#10ACE4" fill-rule="nonzero"></path>
            <path d="M11.4752094,24.9995875 C11.4748511,24.2539647 11.5365384,23.5096045 11.6596437,22.7742144 C11.7328526,22.3408174 12.031715,21.9793985 12.4436523,21.8261009 C12.8555896,21.6728032 13.3180187,21.7509162 13.6567471,22.0310155 C13.9954754,22.3111148 14.1590421,22.7506467 14.0858332,23.1840437 C13.9844501,23.7839001 13.9337256,24.3912241 13.9341963,24.9995875 C13.9322367,26.3763965 14.1880027,27.7414082 14.6882822,29.0241113 C14.9349955,29.6567385 14.6221505,30.3695848 13.9895233,30.6162981 C13.3568961,30.8630114 12.6440497,30.5501663 12.3973364,29.9175391 C11.785819,28.350112 11.4730628,26.6820788 11.4752094,24.9995875 L11.4752094,24.9995875 Z" id="Path" fill="#10ACE4" fill-rule="nonzero"></path>
            <path d="M15.622693,24.097963 C15.622693,24.0528818 15.622693,24.0078006 15.622693,23.9586211 C15.7375577,22.9043108 16.0313823,21.8773105 16.4915312,20.9217859 C16.6818744,20.5257255 17.0690546,20.2612975 17.5072247,20.2281094 C17.9453947,20.1949213 18.3679862,20.3980151 18.6158129,20.7608875 C18.8636397,21.1237598 18.899051,21.5912817 18.7087077,21.9873421 C18.3680812,22.6924836 18.1504713,23.4506531 18.0652757,24.2291084 C18.0290609,24.9081358 17.4492425,25.4292384 16.7702151,25.3930236 C16.0911877,25.3568088 15.5700851,24.7769905 15.6062999,24.097963 L15.622693,24.097963 Z" id="Path" fill="#10ACE4" fill-rule="nonzero"></path>
            <g id="Group" opacity="0.7" transform="translate(11.065391, 0.000000)" stroke-linecap="round" stroke-width="1.02081649">
                <path d="M21.6553804,22.2414363 C21.0479088,20.5373284 19.8955507,19.0810359 18.376746,18.098062" id="Path" stroke="url(#linearGradient-11)" opacity="0.8"></path>
                <path d="M18.2865835,0.795068849 C11.9114077,-0.349356639 5.34198878,1.06258257 0,4.72533187" id="Path" stroke="url(#linearGradient-12)" opacity="0.8"></path>
                <path d="M22.5406117,6.38923884 C18.1001293,4.34685534 13.0773085,3.95310804 8.37281267,5.27860143" id="Path" stroke="url(#linearGradient-13)" opacity="0.8"></path>
                <path d="M23.9873091,12.0489815 C21.1141742,9.8120457 17.5754527,8.60025358 13.9341963,8.60639199 L13.73338,8.60639199" id="Path" stroke="url(#linearGradient-14)" opacity="0.8"></path>
                <path d="M23.5487918,17.3357795 C21.9077651,15.2742618 19.6478608,13.794477 17.1021768,13.1145377" id="Path" stroke="url(#linearGradient-15)" opacity="0.8"></path>
            </g>
            <path d="M10.1268821,4.18435404 C10.6553477,4.18316756 11.1254574,4.51981453 11.2945228,5.02050824 C11.4635882,5.52120196 11.2937848,6.07392348 10.8727714,6.39333713 C7.15694017,9.20405477 4.3689663,13.0641067 2.86880512,17.4751215 C2.64136447,18.1053641 1.95116757,18.4374549 1.31676431,18.2218918 C0.682361053,18.0063288 0.33736523,17.3224911 0.54097468,16.6841509 C2.1980201,11.8085106 5.27865864,7.54158354 9.38509105,4.43435306 C9.59851516,4.2724311 9.85898567,4.18464822 10.1268821,4.18435404 Z" id="Path" fill="#10ACE4" fill-rule="nonzero"></path>
            <path d="M18.376746,4.37279899 C18.980924,4.36604701 19.5005199,4.79923066 19.6024975,5.3947794 C19.704475,5.99032814 19.3586056,6.57170792 18.7865753,6.7662818 C14.9301377,8.09412681 11.5893419,10.6018744 9.2375525,13.9341963 C8.84711172,14.4898671 8.08013679,14.6238124 7.52446603,14.2333717 C6.96879527,13.8429309 6.83484988,13.075956 7.22529062,12.5202852 C9.87479915,8.76814754 13.636755,5.94381329 17.9792115,4.44664794 C18.1067441,4.40028897 18.2410715,4.37536223 18.376746,4.37279899 Z" id="Path" fill="#10ACE4" fill-rule="nonzero"></path>
            <path d="M23.7414115,7.42610698 C24.420439,7.40120933 24.991083,7.93148626 25.0159806,8.61051367 C25.0408783,9.28954107 24.5106014,9.8601851 23.831574,9.8850828 C20.7405015,10.1144621 17.7959628,11.2939953 15.4013852,13.2620763 C14.874784,13.6683622 14.1205623,13.582212 13.6991453,13.0676396 C13.2777282,12.5530671 13.3419248,11.7966605 13.8440339,11.3604683 C16.6288425,9.07179828 20.052594,7.69914875 23.6471508,7.43020527 L23.7414115,7.42610698 Z" id="Path" fill="#10ACE4" fill-rule="nonzero"></path>
            <path d="M24.9995875,11.4752094 C25.7452103,11.4748511 26.4895705,11.5365384 27.2249606,11.6596437 C27.8949343,11.7728149 28.3463119,12.4076793 28.2331407,13.0776531 C28.1199695,13.7476268 27.485105,14.1990044 26.8151313,14.0858332 C26.2152749,13.9844501 25.6079509,13.9337256 24.9995875,13.9341963 C23.6227785,13.9322367 22.2577668,14.1880027 20.9750637,14.6882822 C20.5658257,14.8478778 20.1025309,14.7770242 19.7596981,14.5024114 C19.4168653,14.2277986 19.246579,13.7911468 19.3129842,13.3569385 C19.3793895,12.9227302 19.6723978,12.5569319 20.0816359,12.3973364 C21.649063,11.785819 23.3170963,11.4730628 24.9995875,11.4752094 Z" id="Path" fill="#10ACE4" fill-rule="nonzero"></path>
            <path d="M25.901212,15.622693 L26.0405539,15.622693 C27.1023578,15.737849 28.1364978,16.0345057 29.0978805,16.4997278 C29.493941,16.690071 29.758369,17.0772512 29.7915571,17.5154213 C29.8247452,17.9535913 29.6216514,18.3761828 29.258779,18.6240095 C28.8959067,18.8718363 28.4283848,18.9072476 28.0323244,18.7169043 C27.3271829,18.3762778 26.5690133,18.1586679 25.7905581,18.0734723 C25.1115306,18.0372575 24.590428,17.4574391 24.6266428,16.7784117 C24.6628576,16.0993843 25.242676,15.5782817 25.9217034,15.6144965 L25.901212,15.622693 Z" id="Path" fill="#10ACE4" fill-rule="nonzero"></path>
            <g id="Group" opacity="0.7" transform="translate(27.458563, 11.065391)" stroke-linecap="round" stroke-width="1.02081649">
                <path d="M0.299175391,21.6553804 C2.00328329,21.0479088 3.45957577,19.8955507 4.44254965,18.376746" id="Path" stroke="url(#linearGradient-16)" opacity="0.8"></path>
                <path d="M21.7455428,18.2865835 C22.8899683,11.9114077 21.4780291,5.34198878 17.8152798,0" id="Path" stroke="url(#linearGradient-17)" opacity="0.8"></path>
                <path d="M16.1513728,22.5406117 C18.1937563,18.1001293 18.5875037,13.0773085 17.2620103,8.37281267" id="Path" stroke="url(#linearGradient-18)" opacity="0.8"></path>
                <path d="M10.4916302,23.9873091 C12.728566,21.1141742 13.9403581,17.5754527 13.9342197,13.9341963 L13.9342197,13.73338" id="Path" stroke="url(#linearGradient-19)" opacity="0.8"></path>
                <path d="M5.20483215,23.5487918 C7.26634992,21.9077651 8.74613467,19.6478608 9.42607398,17.1021768" id="Path" stroke="url(#linearGradient-20)" opacity="0.8"></path>
            </g>
            <path d="M45.814821,10.1268821 C45.8160075,10.6553477 45.4793605,11.1254574 44.9786668,11.2945228 C44.4779731,11.4635882 43.9252515,11.2937848 43.6058379,10.8727714 C40.7983067,7.16261489 36.9444238,4.37782763 32.5404467,2.87700171 C31.9102041,2.64956105 31.5781133,1.95936416 31.7936763,1.3249609 C32.0092394,0.690557639 32.6930771,0.345561816 33.3314172,0.549171267 C38.20002,2.2068822 42.4607778,5.28433407 45.564822,9.38509105 C45.7267439,9.59851516 45.8145268,9.85898567 45.814821,10.1268821 Z" id="Path" fill="#10ACE4" fill-rule="nonzero"></path>
            <path d="M45.626376,18.376746 C45.633128,18.980924 45.1999443,19.5005199 44.6043956,19.6024975 C44.0088469,19.704475 43.4274671,19.3586056 43.2328932,18.7865753 C41.9050482,14.9301377 39.3973006,11.5893419 36.0649787,9.2375525 C35.5093079,8.84711173 35.3753625,8.08013678 35.7658033,7.52446601 C36.1562441,6.96879524 36.923219,6.83484985 37.4788898,7.22529062 C41.2310275,9.87479915 44.0553617,13.636755 45.5525271,17.9792115 C45.598886,18.1067441 45.6238128,18.2410715 45.626376,18.376746 Z" id="Path" fill="#10ACE4" fill-rule="nonzero"></path>
            <path d="M42.573068,23.7414115 C42.5979657,24.420439 42.0676888,24.991083 41.3886613,25.0159806 C40.7096339,25.0408783 40.1389899,24.5106014 40.1140922,23.831574 C39.8847129,20.7405015 38.7051797,17.7959628 36.7370988,15.4013852 C36.4434406,15.0633498 36.3567791,14.5923923 36.5108717,14.1719657 C36.6649643,13.7515391 37.0354426,13.4481301 37.4779935,13.3799263 C37.9205444,13.3117224 38.3651824,13.4895096 38.6387067,13.8440339 C40.9273767,16.6288425 42.3000263,20.052594 42.5689697,23.6471508 L42.573068,23.7414115 Z" id="Path" fill="#10ACE4" fill-rule="nonzero"></path>
            <path d="M38.5239656,24.9995875 C38.5243239,25.7452103 38.4626366,26.4895705 38.3395313,27.2249606 C38.2663224,27.6583576 37.96746,28.0197765 37.5555227,28.1730742 C37.1435854,28.3263719 36.6811563,28.2482589 36.3424279,27.9681595 C36.0036996,27.6880602 35.8401329,27.2485283 35.9133419,26.8151313 C36.0147249,26.2152749 36.0654494,25.6079509 36.0649787,24.9995875 C36.0669383,23.6227785 35.8111723,22.2577668 35.3108928,20.9750637 C35.0641795,20.3424365 35.3770246,19.6295902 36.0096518,19.382877 C36.642279,19.1361637 37.3551253,19.4490087 37.6018386,20.0816359 C38.213356,21.649063 38.5261122,23.3170963 38.5239656,24.9995875 L38.5239656,24.9995875 Z" id="Path" fill="#10ACE4" fill-rule="nonzero"></path>
            <path d="M34.376482,25.901212 C34.376482,25.9462932 34.376482,25.9913744 34.376482,26.0405539 C34.2616173,27.0948643 33.9677927,28.1218645 33.5076438,29.0773891 C33.3173006,29.4734495 32.9301204,29.7378776 32.4919503,29.7710657 C32.0537803,29.8042538 31.6311888,29.6011599 31.3833621,29.2382876 C31.1355353,28.8754152 31.100124,28.4078933 31.2904673,28.0118329 C31.6310938,27.3066914 31.8487037,26.5485219 31.9338993,25.7700666 C31.9701141,25.0910392 32.5499325,24.5699366 33.2289599,24.6061514 C33.9079873,24.6423662 34.4290899,25.2221846 34.3928751,25.901212 L34.376482,25.901212 Z" id="Path" fill="#10ACE4" fill-rule="nonzero"></path>
        </g>
        <path d="M67.0944,22 L67.0944,8.176 L69.6288,8.176 L69.6288,13.8016 L78.6912,13.8016 L78.6912,8.176 L81.2256,8.176 L81.2256,22 L78.6912,22 L78.6912,16.3744 L69.6288,16.3744 L69.6288,22 L67.0944,22 Z M84.5376,22 L84.5376,8.176 L87.0528,8.176 L87.0528,22 L84.5376,22 Z M89.9616001,22 L89.9616001,8.176 L101.0976,8.176 C101.840004,8.176 102.473597,8.43839738 102.9984,8.9632 C103.523203,9.48800262 103.7856,10.1151964 103.7856,10.8448 L103.7856,19.3312 C103.7856,20.0608036 103.523203,20.6879974 102.9984,21.2128 C102.473597,21.7376026 101.840004,22 101.0976,22 L89.9616001,22 Z M93.0409496,19.44535 L100.56,19.4464 C100.905602,19.4464 101.104,19.4240002 101.1552,19.3792 C101.2064,19.3343998 101.232,19.1328018 101.232,18.7744 L101.232,11.4016 L101.2272,11.1621993 C101.2176,10.9521991 101.1936,10.8304002 101.1552,10.7968 C101.111314,10.7583998 100.959283,10.7364571 100.699103,10.7309714 L93.1680001,10.7296 C92.8095983,10.7296 92.6080003,10.7519998 92.5632001,10.7968 C92.5239999,10.8360002 92.50195,10.9952487 92.4970501,11.2745495 L92.4960001,18.7744 C92.4960001,19.1328018 92.5183999,19.3343998 92.5632001,19.3792 C92.6024003,19.4184002 92.7616488,19.44045 93.0409496,19.44535 L93.0409496,19.44535 Z M107.1168,22 L107.1168,8.1952 L118.2528,8.1952 C118.995204,8.1952 119.628798,8.46079734 120.1536,8.992 C120.678403,9.52320266 120.9408,10.1471964 120.9408,10.864 L120.9408,14.5888 C120.9408,15.3184036 120.678403,15.9455974 120.1536,16.4704 C119.628798,16.9952026 118.995204,17.2576 118.2528,17.2576 L117.504,17.2576 L120.9216,21.2896 L120.9216,22 L118.1568,22 L114.1824,17.2576 L109.6512,17.2768 L109.6512,22 L107.1168,22 Z M110.19615,14.7031 L117.7152,14.704 C118.060802,14.704 118.256,14.6848002 118.3008,14.6464 C118.3456,14.6079998 118.368,14.4096018 118.368,14.0512 L118.368,11.4016 L118.3638,11.1621993 C118.3554,10.9521991 118.3344,10.8304002 118.3008,10.7968 C118.256,10.7519998 118.060802,10.7296 117.7152,10.7296 L110.3232,10.7296 C109.964798,10.7296 109.7632,10.7519998 109.7184,10.7968 C109.6792,10.8360002 109.65715,10.9952487 109.65225,11.2745495 L109.6512,14.0512 C109.6512,14.4096018 109.6736,14.6079998 109.7184,14.6464 C109.7576,14.6800002 109.916849,14.6989 110.19615,14.7031 L110.19615,14.7031 Z M129.936,6.64 L129.0528,3.1264 L131.6064,3.1264 L132.4896,6.64 L129.936,6.64 Z M124.2144,22 L124.2144,10.8448 C124.2144,10.1151964 124.476798,9.48800262 125.0016,8.9632 C125.526403,8.43839738 126.153597,8.176 126.8832,8.176 L135.3504,8.176 C136.092804,8.176 136.726398,8.43839738 137.2512,8.9632 C137.776003,9.48800262 138.0384,10.1151964 138.0384,10.8448 L138.0384,22 L135.4848,22 L135.4848,17.3536 L126.7488,17.3536 L126.7488,22 L124.2144,22 Z M126.7488,14.8192 L135.4848,14.8192 L135.4848,11.4016 C135.4848,11.0431982 135.4592,10.8416002 135.408,10.7968 C135.364114,10.7583998 135.212083,10.7364571 134.951903,10.7309714 L127.4208,10.7296 C127.062398,10.7296 126.8608,10.7519998 126.816,10.7968 C126.7768,10.8360002 126.75475,10.9952487 126.74985,11.2745495 L126.7488,14.8192 Z M144.0576,22 C143.327997,22 142.700803,21.7376026 142.176,21.2128 C141.651198,20.6879974 141.3888,20.0608036 141.3888,19.3312 L141.3888,8.176 L143.9232,8.176 L143.9232,18.7744 C143.9232,19.1328018 143.9456,19.3343998 143.9904,19.3792 C144.0352,19.4240002 144.236798,19.4464 144.5952,19.4464 L151.9872,19.4464 C152.332802,19.4464 152.5312,19.4240002 152.5824,19.3792 C152.6272,19.3399998 152.6524,19.1807513 152.658,18.9014505 L152.6592,8.176 L155.2128,8.176 L155.2128,19.3312 C155.2128,20.0608036 154.950403,20.6879974 154.4256,21.2128 C153.900798,21.7376026 153.273604,22 152.544,22 L144.0576,22 Z M158.544,22 L158.544,8.1568 L161.0784,8.1568 L161.0784,19.4464 L172.368,19.4464 L172.368,22 L158.544,22 Z M174.6048,22 L174.6048,8.176 L177.12,8.176 L177.12,22 L174.6048,22 Z M182.6592,22 C181.929597,22 181.302403,21.7376026 180.7776,21.2128 C180.252798,20.6879974 179.9904,20.0608036 179.9904,19.3312 L179.9904,10.8448 C179.9904,10.1151964 180.252798,9.48800262 180.7776,8.9632 C181.302403,8.43839738 181.929597,8.176 182.6592,8.176 L193.776,8.176 L193.776,10.7296 L183.1968,10.7296 C182.838399,10.7296 182.636801,10.7519998 182.592,10.7968 C182.5528,10.8360002 182.53075,10.9952487 182.52585,11.2745495 L182.5248,18.7744 C182.5248,19.1328018 182.5472,19.3343998 182.592,19.3792 C182.636801,19.4240002 182.838399,19.4464 183.1968,19.4464 L193.776,19.4464 L193.776,22 L182.6592,22 Z M197.0112,22 L197.0112,10.8448 C197.0112,10.1151964 197.273598,9.48800262 197.7984,8.9632 C198.323203,8.43839738 198.950397,8.176 199.68,8.176 L208.1472,8.176 C208.889604,8.176 209.523198,8.43839738 210.048,8.9632 C210.572803,9.48800262 210.8352,10.1151964 210.8352,10.8448 L210.8352,22 L208.2816,22 L208.2816,17.3536 L199.5456,17.3536 L199.5456,22 L197.0112,22 Z M199.5456,14.8192 L208.2816,14.8192 L208.2816,11.4016 C208.2816,11.0431982 208.256001,10.8416002 208.2048,10.7968 C208.160914,10.7583998 208.008883,10.7364571 207.748703,10.7309714 L200.2176,10.7296 C199.859199,10.7296 199.657601,10.7519998 199.6128,10.7968 C199.568,10.8416002 199.5456,11.0431982 199.5456,11.4016 L199.5456,14.8192 Z M223.976841,22 C223.247238,22 222.620044,21.7376026 222.095241,21.2128 C221.570439,20.6879974 221.308041,20.0608036 221.308041,19.3312 L221.308041,10.8448 C221.308041,10.1151964 221.570439,9.48800262 222.095241,8.9632 C222.620044,8.43839738 223.247238,8.176 223.976841,8.176 L235.093641,8.176 L235.093641,10.7296 L224.514441,10.7296 C224.156039,10.7296 223.954441,10.7519998 223.909641,10.7968 C223.870441,10.8360002 223.848391,10.9952487 223.843491,11.2745495 L223.842441,18.7744 C223.842441,19.1328018 223.864841,19.3343998 223.909641,19.3792 C223.954441,19.4240002 224.156039,19.4464 224.514441,19.4464 L235.093641,19.4464 L235.093641,22 L223.976841,22 Z M238.328841,22 L238.328841,10.8448 C238.328841,10.1151964 238.591239,9.48800262 239.116041,8.9632 C239.640844,8.43839738 240.268038,8.176 240.997641,8.176 L249.464841,8.176 C250.207245,8.176 250.840839,8.43839738 251.365641,8.9632 C251.890444,9.48800262 252.152841,10.1151964 252.152841,10.8448 L252.152841,22 L249.599241,22 L249.599241,17.3536 L240.863241,17.3536 L240.863241,22 L238.328841,22 Z M240.863241,14.8192 L249.599241,14.8192 L249.599241,11.4016 C249.599241,11.0431982 249.573641,10.8416002 249.522441,10.7968 C249.478555,10.7583998 249.326524,10.7364571 249.066344,10.7309714 L241.535241,10.7296 C241.176839,10.7296 240.975241,10.7519998 240.930441,10.7968 C240.891241,10.8360002 240.869191,10.9952487 240.864291,11.2745495 L240.863241,14.8192 Z M260.495241,22 L260.495241,10.7296 L254.850441,10.7296 L254.850441,8.176 L268.674441,8.176 L268.674441,10.7296 L263.048841,10.7296 L263.048841,22 L260.495241,22 Z M271.352841,22 L271.352841,10.8448 C271.352841,10.1151964 271.615239,9.48800262 272.140041,8.9632 C272.664844,8.43839738 273.292038,8.176 274.021641,8.176 L282.488841,8.176 C283.231245,8.176 283.864839,8.43839738 284.389641,8.9632 C284.914444,9.48800262 285.176841,10.1151964 285.176841,10.8448 L285.176841,22 L282.623241,22 L282.623241,17.3536 L273.887241,17.3536 L273.887241,22 L271.352841,22 Z M273.887241,14.8192 L282.623241,14.8192 L282.623241,11.4016 C282.623241,11.0431982 282.597642,10.8416002 282.546441,10.7968 C282.502555,10.7583998 282.350524,10.7364571 282.090344,10.7309714 L274.559241,10.7296 C274.20084,10.7296 273.999242,10.7519998 273.954441,10.7968 C273.915241,10.8360002 273.893191,10.9952487 273.888291,11.2745495 L273.887241,14.8192 Z M288.584841,22 L288.584841,8.1568 L291.119241,8.1568 L291.119241,19.4464 L302.408841,19.4464 L302.408841,22 L288.584841,22 Z M304.760841,22 L304.760841,10.8448 C304.760841,10.1151964 305.023239,9.48800262 305.548041,8.9632 C306.072844,8.43839738 306.700038,8.176 307.429641,8.176 L315.896841,8.176 C316.639245,8.176 317.272839,8.43839738 317.797641,8.9632 C318.322444,9.48800262 318.584841,10.1151964 318.584841,10.8448 L318.584841,22 L316.031241,22 L316.031241,17.3536 L307.295241,17.3536 L307.295241,22 L304.760841,22 Z M307.295241,14.8192 L316.031241,14.8192 L316.031241,11.4016 C316.031241,11.0431982 316.005642,10.8416002 315.954441,10.7968 C315.910555,10.7583998 315.758524,10.7364571 315.498344,10.7309714 L307.967241,10.7296 C307.60884,10.7296 307.407242,10.7519998 307.362441,10.7968 C307.323241,10.8360002 307.301191,10.9952487 307.296291,11.2745495 L307.295241,14.8192 Z M321.973641,22 L321.973641,8.176 L324.757641,8.176 L333.244041,18.2752 L333.244041,8.176 L335.797641,8.176 L335.797641,22 L333.013641,22 L324.508041,11.8816 L324.508041,22 L321.973641,22 Z M339.186441,22 L339.186441,10.8448 C339.186441,10.1151964 339.448839,9.48800262 339.973641,8.9632 C340.498444,8.43839738 341.125638,8.176 341.855241,8.176 L350.322441,8.176 C351.064845,8.176 351.698439,8.43839738 352.223241,8.9632 C352.748044,9.48800262 353.010441,10.1151964 353.010441,10.8448 L353.010441,22 L350.456841,22 L350.456841,17.3536 L341.720841,17.3536 L341.720841,22 L339.186441,22 Z M341.720841,14.8192 L350.456841,14.8192 L350.456841,11.4016 C350.456841,11.0431982 350.431242,10.8416002 350.380041,10.7968 C350.336156,10.7583998 350.184124,10.7364571 349.923944,10.7309714 L342.392841,10.7296 C342.03444,10.7296 341.832842,10.7519998 341.788041,10.7968 C341.748841,10.8360002 341.726791,10.9952487 341.721891,11.2745495 L341.720841,14.8192 Z M66.696,42 L66.696,33.36 L73.656,33.36 C74.1200023,33.36 74.5159984,33.5239984 74.844,33.852 C75.1720016,34.1800016 75.336,34.5719977 75.336,35.028 L75.336,40.332 C75.336,40.7880023 75.1720016,41.1799984 74.844,41.508 C74.5159984,41.8360016 74.1200023,42 73.656,42 L66.696,42 Z M68.7,40.404 L73.32,40.404 L73.5053338,40.3993334 C73.6084449,40.3931112 73.6706666,40.3806668 73.692,40.362 C73.7240002,40.3339999 73.74,40.2080011 73.74,39.984 L73.74,35.376 L73.7346667,35.1846662 C73.7275556,35.0788885 73.7133334,35.0166668 73.692,34.998 C73.6599998,34.9699999 73.5360011,34.956 73.32,34.956 L68.7,34.956 C68.4759989,34.956 68.3500001,34.9699999 68.322,34.998 C68.2939999,35.0260001 68.28,35.1519989 68.28,35.376 L68.28,39.984 C68.28,40.2080011 68.2939999,40.3339999 68.322,40.362 C68.3500001,40.3900001 68.4759989,40.404 68.7,40.404 Z M77.454,42 L77.454,33.36 L85.41,33.36 L85.41,34.956 L79.05,34.956 L79.05,36.876 L84.162,36.876 L84.162,38.484 L79.05,38.484 L79.05,40.404 L85.41,40.404 L85.41,42 L77.454,42 Z M91.7995254,42 L91.7995254,33.36 L93.5395254,33.36 L96.6715254,37.092 L99.7915254,33.36 L101.543525,33.36 L101.543525,42 L99.9475254,42 L99.9475254,35.664 L96.6715254,39.564 L93.3835254,35.676 L93.3835254,42 L91.7995254,42 Z M103.709525,42 L103.709525,35.028 C103.709525,34.5719977 103.873524,34.1800016 104.201525,33.852 C104.529527,33.5239984 104.921523,33.36 105.377525,33.36 L110.669525,33.36 C111.133528,33.36 111.529524,33.5239984 111.857525,33.852 C112.185527,34.1800016 112.349525,34.5719977 112.349525,35.028 L112.349525,42 L110.753525,42 L110.753525,39.096 L105.293525,39.096 L105.293525,42 L103.709525,42 Z M105.293525,37.512 L110.753525,37.512 L110.753525,35.376 C110.753525,35.1519989 110.737526,35.0260001 110.705525,34.998 C110.673525,34.9699999 110.549526,34.956 110.333525,34.956 L105.713525,34.956 C105.489524,34.956 105.363526,34.9699999 105.335525,34.998 C105.312192,35.0213335 105.298581,35.1127215 105.294692,35.2721663 L105.293525,37.512 Z M114.467525,42 L114.467525,33.36 L116.207525,33.36 L121.511525,39.672 L121.511525,33.36 L123.107525,33.36 L123.107525,42 L121.367525,42 L116.051525,35.676 L116.051525,42 L114.467525,42 Z M128.297525,42 L128.297525,34.956 L124.769525,34.956 L124.769525,33.36 L133.409525,33.36 L133.409525,34.956 L129.893525,34.956 L129.893525,42 L128.297525,42 Z M135.083525,42 L135.083525,33.36 L143.039525,33.36 L143.039525,34.956 L136.679525,34.956 L136.679525,36.876 L141.791525,36.876 L141.791525,38.484 L136.679525,38.484 L136.679525,40.404 L143.039525,40.404 L143.039525,42 L135.083525,42 Z M145.001525,42 L145.001525,33.36 L146.741525,33.36 L152.045525,39.672 L152.045525,33.36 L153.641525,33.36 L153.641525,42 L151.901525,42 L146.585525,35.676 L146.585525,42 L145.001525,42 Z M155.687525,42 L155.687525,33.36 L157.259525,33.36 L157.259525,42 L155.687525,42 Z M159.053525,42 L159.053525,33.36 L160.793525,33.36 L163.925525,37.092 L167.045525,33.36 L168.797525,33.36 L168.797525,42 L167.201525,42 L167.201525,35.664 L163.925525,39.564 L160.637525,35.676 L160.637525,42 L159.053525,42 Z M170.963525,42 L170.963525,33.36 L178.919525,33.36 L178.919525,34.956 L172.559525,34.956 L172.559525,36.876 L177.671525,36.876 L177.671525,38.484 L172.559525,38.484 L172.559525,40.404 L178.919525,40.404 L178.919525,42 L170.963525,42 Z M180.881525,42 L180.881525,33.36 L182.621525,33.36 L187.925525,39.672 L187.925525,33.36 L189.521525,33.36 L189.521525,42 L187.781525,42 L182.465525,35.676 L182.465525,42 L180.881525,42 Z M194.711525,42 L194.711525,34.956 L191.183525,34.956 L191.183525,33.36 L199.823525,33.36 L199.823525,34.956 L196.307525,34.956 L196.307525,42 L194.711525,42 Z M207.533051,42 C207.077049,42 206.685052,41.8360016 206.357051,41.508 C206.029049,41.1799984 205.865051,40.7880023 205.865051,40.332 L205.865051,39.672 L207.449051,39.672 L207.449051,39.984 C207.449051,40.2080011 207.463051,40.3339999 207.491051,40.362 C207.519051,40.3900001 207.64505,40.404 207.869051,40.404 L212.489051,40.404 L212.680385,40.3993334 C212.786162,40.3931112 212.848384,40.3806668 212.867051,40.362 C212.895051,40.3339999 212.909051,40.2080011 212.909051,39.984 L212.909051,38.892 L212.904384,38.7013329 C212.898162,38.596444 212.885718,38.5360001 212.867051,38.52 C212.843717,38.4999999 212.752329,38.4883333 212.592884,38.485 L207.533051,38.484 C207.077049,38.484 206.685052,38.3180017 206.357051,37.986 C206.029049,37.6539983 205.865051,37.2600023 205.865051,36.804 L205.865051,35.028 C205.865051,34.5719977 206.029049,34.1800016 206.357051,33.852 C206.685052,33.5239984 207.077049,33.36 207.533051,33.36 L212.837051,33.36 C213.293053,33.36 213.685049,33.5239984 214.013051,33.852 C214.341052,34.1800016 214.505051,34.5719977 214.505051,35.028 L214.505051,35.688 L212.909051,35.688 L212.909051,35.376 L212.904384,35.1846662 C212.898162,35.0788885 212.885718,35.0166668 212.867051,34.998 C212.839051,34.9699999 212.713052,34.956 212.489051,34.956 L207.869051,34.956 C207.64505,34.956 207.519051,34.9699999 207.491051,34.998 C207.463051,35.0260001 207.449051,35.1519989 207.449051,35.376 L207.449051,36.468 C207.449051,36.6920011 207.463051,36.8159999 207.491051,36.84 C207.519051,36.8640001 207.64505,36.876 207.869051,36.876 L212.837051,36.876 C213.293053,36.876 213.685049,37.0419983 214.013051,37.374 C214.341052,37.7060017 214.505051,38.0999977 214.505051,38.556 L214.505051,40.332 C214.505051,40.7880023 214.341052,41.1799984 214.013051,41.508 C213.685049,41.8360016 213.293053,42 212.837051,42 L207.533051,42 Z M216.540674,42 L216.540674,40.428 L218.112674,40.428 L218.112674,42 L216.540674,42 Z M220.051813,42 L220.051813,33.348 L221.635813,33.348 L221.635813,40.404 L228.691813,40.404 L228.691813,42 L220.051813,42 Z M230.113813,42 L230.113813,40.428 L231.685813,40.428 L231.685813,42 L230.113813,42 Z" id="HIDRÀULICACATALANADEMANTENIMENTS.L." fill="#000000" fill-rule="nonzero"></path>
    </g>
</svg>