<?xml version="1.0" encoding="UTF-8"?>
<svg width="298px" height="50px" viewBox="0 0 298 50" version="1.1" xmlns="http://www.w3.org/2000/svg" xmlns:xlink="http://www.w3.org/1999/xlink">
    <!-- Generator: Sketch 58 (84663) - https://sketch.com -->
    <title>Corporate/ic_logo_text</title>
    <desc>Created with Sketch.</desc>
    <g id="Corporate/ic_logo_text" stroke="none" stroke-width="1" fill="none" fill-rule="evenodd">
        <path d="M7.39796246,21.9349687 L7.39796246,8.0660191 L9.92957909,8.0660191 L9.92957909,13.7099111 L18.9820264,13.7099111 L18.9820264,8.0660191 L21.513643,8.0660191 L21.513643,21.9349687 L18.9820264,21.9349687 L18.9820264,16.2910767 L9.92957909,16.2910767 L9.92957909,21.9349687 L7.39796246,21.9349687 Z M24.8220057,21.9349687 L24.8220057,8.0660191 L27.3344434,8.0660191 L27.3344434,21.9349687 L24.8220057,21.9349687 Z M30.2400489,21.9349687 L30.2400489,8.0660191 L41.3638189,8.0660191 C42.1054073,8.0660191 42.7383051,8.32926968 43.2625314,8.85577873 C43.7867577,9.38228778 44.0488669,10.0115209 44.0488669,10.7434969 L44.0488669,19.2574909 C44.0488669,19.9894669 43.7867577,20.6187 43.2625314,21.1452091 C42.7383051,21.6717181 42.1054073,21.9349687 41.3638189,21.9349687 L30.2400489,21.9349687 Z M33.3160166,19.3720121 L40.8268094,19.3730655 C41.1720315,19.3730655 41.3702117,19.3505929 41.4213557,19.305647 C41.4724997,19.2607011 41.4980713,19.0584476 41.4980713,18.6988805 L41.4980713,11.3021073 L41.4932766,11.0619282 C41.4836872,10.8512452 41.4597137,10.7290502 41.4213557,10.6953408 C41.3775179,10.6568157 41.2256537,10.6348017 40.9657592,10.6292982 L33.4429275,10.6279223 C33.0849193,10.6279223 32.8835428,10.6503949 32.8387917,10.6953408 C32.7996346,10.7346685 32.777609,10.8944347 32.7727144,11.1746437 L32.7716655,18.6988805 C32.7716655,19.0584476 32.7940407,19.2607011 32.8387917,19.305647 C32.8779489,19.3449747 33.0370225,19.3670962 33.3160166,19.3720121 L33.3160166,19.3720121 Z M47.3764085,21.9349687 L47.3764085,8.08528153 L58.5001785,8.08528153 C59.2417669,8.08528153 59.8746647,8.35174248 60.398891,8.88467237 C60.9231172,9.41760227 61.1852264,10.043625 61.1852264,10.7627593 L61.1852264,14.4996707 C61.1852264,15.2316467 60.9231172,15.8608798 60.398891,16.3873889 C59.8746647,16.9138979 59.2417669,17.1771485 58.5001785,17.1771485 L57.7522009,17.1771485 L61.1660475,21.2222588 L61.1660475,21.9349687 L58.4042839,21.9349687 L54.4342488,17.1771485 L49.9080251,17.1964109 L49.9080251,21.9349687 L47.3764085,21.9349687 Z M50.4523761,14.6143424 L57.9631689,14.6152453 C58.3083911,14.6152453 58.5033748,14.5959831 58.5481258,14.557458 C58.5928768,14.518933 58.615252,14.3198898 58.615252,13.9603227 L58.615252,11.3021073 L58.6110566,11.0619282 C58.6026659,10.8512452 58.581689,10.7290502 58.5481258,10.6953408 C58.5033748,10.6503949 58.3083911,10.6279223 57.9631689,10.6279223 L50.5792871,10.6279223 C50.2212789,10.6279223 50.0199023,10.6503949 49.9751513,10.6953408 C49.9359942,10.7346685 49.9139685,10.8944347 49.9090739,11.1746437 L49.9080251,13.9603227 C49.9080251,14.3198898 49.9304003,14.518933 49.9751513,14.557458 C50.0143084,14.5911674 50.173382,14.6101288 50.4523761,14.6143424 L50.4523761,14.6143424 Z M70.1705476,6.5250247 L69.2883176,3 L71.8391131,3 L72.7213431,6.5250247 L70.1705476,6.5250247 Z M64.4552313,21.9349687 L64.4552313,10.7434969 C64.4552313,10.0115209 64.7173405,9.38228778 65.2415667,8.85577873 C65.765793,8.32926968 66.3922979,8.0660191 67.1211003,8.0660191 L75.5790013,8.0660191 C76.3205897,8.0660191 76.9534875,8.32926968 77.4777138,8.85577873 C78.00194,9.38228778 78.2640492,10.0115209 78.2640492,10.7434969 L78.2640492,21.9349687 L75.7132537,21.9349687 L75.7132537,17.2734607 L66.9868479,17.2734607 L66.9868479,21.9349687 L64.4552313,21.9349687 Z M66.9868479,14.7308199 L75.7132537,14.7308199 L75.7132537,11.3021073 C75.7132537,10.9425402 75.6876821,10.7402867 75.636538,10.6953408 C75.5927003,10.6568157 75.440836,10.6348017 75.1809415,10.6292982 L67.6581099,10.6279223 C67.3001017,10.6279223 67.0987251,10.6503949 67.0539741,10.6953408 C67.014817,10.7346685 66.9927913,10.8944347 66.9878967,11.1746437 L66.9868479,14.7308199 Z M84.2766388,21.9349687 C83.5478364,21.9349687 82.9213315,21.6717181 82.3971052,21.1452091 C81.8728789,20.6187 81.6107697,19.9894669 81.6107697,19.2574909 L81.6107697,8.0660191 L84.1423864,8.0660191 L84.1423864,18.6988805 C84.1423864,19.0584476 84.1647615,19.2607011 84.2095126,19.305647 C84.2542636,19.3505929 84.4556402,19.3730655 84.8136484,19.3730655 L92.1975302,19.3730655 C92.5427524,19.3730655 92.7409325,19.3505929 92.7920765,19.305647 C92.8368275,19.2663194 92.8619997,19.1065531 92.8675935,18.8263441 L92.8687922,8.0660191 L95.4195877,8.0660191 L95.4195877,19.2574909 C95.4195877,19.9894669 95.1574785,20.6187 94.6332522,21.1452091 C94.109026,21.6717181 93.482521,21.9349687 92.7537187,21.9349687 L84.2766388,21.9349687 Z M98.7471293,21.9349687 L98.7471293,8.04675667 L101.278746,8.04675667 L101.278746,19.3730655 L112.555947,19.3730655 L112.555947,21.9349687 L98.7471293,21.9349687 Z M114.790291,21.9349687 L114.790291,8.0660191 L117.302728,8.0660191 L117.302728,21.9349687 L114.790291,21.9349687 Z M122.835845,21.9349687 C122.107043,21.9349687 121.480538,21.6717181 120.956312,21.1452091 C120.432085,20.6187 120.169976,19.9894669 120.169976,19.2574909 L120.169976,10.7434969 C120.169976,10.0115209 120.432085,9.38228778 120.956312,8.85577873 C121.480538,8.32926968 122.107043,8.0660191 122.835845,8.0660191 L133.940436,8.0660191 L133.940436,10.6279223 L123.372855,10.6279223 C123.014847,10.6279223 122.81347,10.6503949 122.768719,10.6953408 C122.729562,10.7346685 122.707536,10.8944347 122.702642,11.1746437 L122.701593,18.6988805 C122.701593,19.0584476 122.723968,19.2607011 122.768719,19.305647 C122.81347,19.3505929 123.014847,19.3730655 123.372855,19.3730655 L133.940436,19.3730655 L133.940436,21.9349687 L122.835845,21.9349687 Z M137.172083,21.9349687 L137.172083,10.7434969 C137.172083,10.0115209 137.434192,9.38228778 137.958419,8.85577873 C138.482645,8.32926968 139.10915,8.0660191 139.837952,8.0660191 L148.295853,8.0660191 C149.037442,8.0660191 149.67034,8.32926968 150.194566,8.85577873 C150.718792,9.38228778 150.980901,10.0115209 150.980901,10.7434969 L150.980901,21.9349687 L148.430106,21.9349687 L148.430106,17.2734607 L139.7037,17.2734607 L139.7037,21.9349687 L137.172083,21.9349687 Z M139.7037,14.7308199 L148.430106,14.7308199 L148.430106,11.3021073 C148.430106,10.9425402 148.404534,10.7402867 148.35339,10.6953408 C148.309552,10.6568157 148.157688,10.6348017 147.897794,10.6292982 L140.374962,10.6279223 C140.016954,10.6279223 139.815577,10.6503949 139.770826,10.6953408 C139.726075,10.7402867 139.7037,10.9425402 139.7037,11.3021073 L139.7037,14.7308199 Z M164.108109,21.9349687 C163.379307,21.9349687 162.752802,21.6717181 162.228576,21.1452091 C161.704349,20.6187 161.44224,19.9894669 161.44224,19.2574909 L161.44224,10.7434969 C161.44224,10.0115209 161.704349,9.38228778 162.228576,8.85577873 C162.752802,8.32926968 163.379307,8.0660191 164.108109,8.0660191 L175.2127,8.0660191 L175.2127,10.6279223 L164.645119,10.6279223 C164.287111,10.6279223 164.085734,10.6503949 164.040983,10.6953408 C164.001826,10.7346685 163.9798,10.8944347 163.974906,11.1746437 L163.973857,18.6988805 C163.973857,19.0584476 163.996232,19.2607011 164.040983,19.305647 C164.085734,19.3505929 164.287111,19.3730655 164.645119,19.3730655 L175.2127,19.3730655 L175.2127,21.9349687 L164.108109,21.9349687 Z M178.444347,21.9349687 L178.444347,10.7434969 C178.444347,10.0115209 178.706457,9.38228778 179.230683,8.85577873 C179.754909,8.32926968 180.381414,8.0660191 181.110216,8.0660191 L189.568117,8.0660191 C190.309706,8.0660191 190.942604,8.32926968 191.46683,8.85577873 C191.991056,9.38228778 192.253165,10.0115209 192.253165,10.7434969 L192.253165,21.9349687 L189.70237,21.9349687 L189.70237,17.2734607 L180.975964,17.2734607 L180.975964,21.9349687 L178.444347,21.9349687 Z M180.975964,14.7308199 L189.70237,14.7308199 L189.70237,11.3021073 C189.70237,10.9425402 189.676798,10.7402867 189.625654,10.6953408 C189.581816,10.6568157 189.429952,10.6348017 189.170058,10.6292982 L181.647226,10.6279223 C181.289218,10.6279223 181.087841,10.6503949 181.04309,10.6953408 C181.003933,10.7346685 180.981907,10.8944347 180.977013,11.1746437 L180.975964,14.7308199 Z M200.586403,21.9349687 L200.586403,10.6279223 L194.947803,10.6279223 L194.947803,8.0660191 L208.756621,8.0660191 L208.756621,10.6279223 L203.137199,10.6279223 L203.137199,21.9349687 L200.586403,21.9349687 Z M211.432079,21.9349687 L211.432079,10.7434969 C211.432079,10.0115209 211.694189,9.38228778 212.218415,8.85577873 C212.742641,8.32926968 213.369146,8.0660191 214.097948,8.0660191 L222.555849,8.0660191 C223.297438,8.0660191 223.930336,8.32926968 224.454562,8.85577873 C224.978788,9.38228778 225.240897,10.0115209 225.240897,10.7434969 L225.240897,21.9349687 L222.690102,21.9349687 L222.690102,17.2734607 L213.963696,17.2734607 L213.963696,21.9349687 L211.432079,21.9349687 Z M213.963696,14.7308199 L222.690102,14.7308199 L222.690102,11.3021073 C222.690102,10.9425402 222.66453,10.7402867 222.613386,10.6953408 C222.569548,10.6568157 222.417684,10.6348017 222.15779,10.6292982 L214.634958,10.6279223 C214.27695,10.6279223 214.075573,10.6503949 214.030822,10.6953408 C213.991665,10.7346685 213.969639,10.8944347 213.964745,11.1746437 L213.963696,14.7308199 Z M228.645155,21.9349687 L228.645155,8.04675667 L231.176771,8.04675667 L231.176771,19.3730655 L242.453972,19.3730655 L242.453972,21.9349687 L228.645155,21.9349687 Z M244.803389,21.9349687 L244.803389,10.7434969 C244.803389,10.0115209 245.065499,9.38228778 245.589725,8.85577873 C246.113951,8.32926968 246.740456,8.0660191 247.469258,8.0660191 L255.927159,8.0660191 C256.668748,8.0660191 257.301646,8.32926968 257.825872,8.85577873 C258.350098,9.38228778 258.612207,10.0115209 258.612207,10.7434969 L258.612207,21.9349687 L256.061412,21.9349687 L256.061412,17.2734607 L247.335006,17.2734607 L247.335006,21.9349687 L244.803389,21.9349687 Z M247.335006,14.7308199 L256.061412,14.7308199 L256.061412,11.3021073 C256.061412,10.9425402 256.03584,10.7402867 255.984696,10.6953408 C255.940858,10.6568157 255.788994,10.6348017 255.5291,10.6292982 L248.006268,10.6279223 C247.64826,10.6279223 247.446883,10.6503949 247.402132,10.6953408 C247.362975,10.7346685 247.34095,10.8944347 247.336055,11.1746437 L247.335006,14.7308199 Z M261.997286,21.9349687 L261.997286,8.0660191 L264.778228,8.0660191 L273.255308,18.1980573 L273.255308,8.0660191 L275.806104,8.0660191 L275.806104,21.9349687 L273.025161,21.9349687 L264.528902,11.7836681 L264.528902,21.9349687 L261.997286,21.9349687 Z M279.191182,21.9349687 L279.191182,10.7434969 C279.191182,10.0115209 279.453291,9.38228778 279.977518,8.85577873 C280.501744,8.32926968 281.128249,8.0660191 281.857051,8.0660191 L290.314952,8.0660191 C291.05654,8.0660191 291.689438,8.32926968 292.213665,8.85577873 C292.737891,9.38228778 293,10.0115209 293,10.7434969 L293,21.9349687 L290.449204,21.9349687 L290.449204,17.2734607 L281.722799,17.2734607 L281.722799,21.9349687 L279.191182,21.9349687 Z M281.722799,14.7308199 L290.449204,14.7308199 L290.449204,11.3021073 C290.449204,10.9425402 290.423633,10.7402867 290.372489,10.6953408 C290.328651,10.6568157 290.176787,10.6348017 289.916892,10.6292982 L282.394061,10.6279223 C282.036052,10.6279223 281.834676,10.6503949 281.789925,10.6953408 C281.750768,10.7346685 281.728742,10.8944347 281.723848,11.1746437 L281.722799,14.7308199 Z M7,42 L7,33.3319065 L13.9523563,33.3319065 C14.415849,33.3319065 14.8114101,33.4964381 15.1390516,33.8255063 C15.466693,34.1545744 15.6305112,34.5478451 15.6305112,35.0053301 L15.6305112,40.3265764 C15.6305112,40.7840614 15.466693,41.1773321 15.1390516,41.5064002 C14.8114101,41.8354684 14.415849,42 13.9523563,42 L7,42 Z M9.00179913,40.3988105 L13.6167253,40.3988105 L13.8018555,40.3941287 C13.9048533,40.3878863 13.9670067,40.3754014 13.9883167,40.3566739 C14.0202817,40.3285828 14.036264,40.2021743 14.036264,39.9774448 L14.036264,35.3544616 L14.0309366,35.1625057 C14.0238333,35.056384 14.0096267,34.99396 13.9883167,34.9752325 C13.9563517,34.9471414 13.8324891,34.933096 13.6167253,34.933096 L9.00179913,34.933096 C8.77804402,34.933096 8.65218365,34.9471414 8.62421426,34.9752325 C8.59624488,35.0033237 8.58226039,35.1297322 8.58226039,35.3544616 L8.58226039,39.9774448 C8.58226039,40.2021743 8.59624488,40.3285828 8.62421426,40.3566739 C8.65218365,40.3847651 8.77804402,40.3988105 9.00179913,40.3988105 Z M17.7461852,42 L17.7461852,33.3319065 L25.6934476,33.3319065 L25.6934476,34.933096 L19.3404324,34.933096 L19.3404324,36.859339 L24.4468182,36.859339 L24.4468182,38.4725675 L19.3404324,38.4725675 L19.3404324,40.3988105 L25.6934476,40.3988105 L25.6934476,42 L17.7461852,42 Z M32.0759557,42 L32.0759557,33.3319065 L33.8140448,33.3319065 L36.9426051,37.0760413 L40.0591786,33.3319065 L41.8092545,33.3319065 L41.8092545,42 L40.2150073,42 L40.2150073,35.6433981 L36.9426051,39.5560792 L33.6582161,35.6554371 L33.6582161,42 L32.0759557,42 Z M43.9728757,42 L43.9728757,35.0053301 C43.9728757,34.5478451 44.136694,34.1545744 44.4643354,33.8255063 C44.7919768,33.4964381 45.1835424,33.3319065 45.6390439,33.3319065 L50.925232,33.3319065 C51.3887247,33.3319065 51.7842859,33.4964381 52.1119273,33.8255063 C52.4395687,34.1545744 52.6033869,34.5478451 52.6033869,35.0053301 L52.6033869,42 L51.0091397,42 L51.0091397,39.0865575 L45.5551361,39.0865575 L45.5551361,42 L43.9728757,42 Z M45.5551361,37.497407 L51.0091397,37.497407 L51.0091397,35.3544616 C51.0091397,35.1297322 50.9931575,35.0033237 50.9611924,34.9752325 C50.9292274,34.9471414 50.8053648,34.933096 50.589601,34.933096 L45.9746749,34.933096 C45.7509197,34.933096 45.6250594,34.9471414 45.59709,34.9752325 C45.5737822,34.9986419 45.5601861,35.0903271 45.5563015,35.2502903 L45.5551361,37.497407 Z M54.7190609,42 L54.7190609,33.3319065 L56.4571499,33.3319065 L61.7553249,39.6644304 L61.7553249,33.3319065 L63.3495721,33.3319065 L63.3495721,42 L61.611483,42 L56.3013213,35.6554371 L56.3013213,42 L54.7190609,42 Z M68.5338722,42 L68.5338722,34.933096 L65.0097468,34.933096 L65.0097468,33.3319065 L73.640258,33.3319065 L73.640258,34.933096 L70.1281194,34.933096 L70.1281194,42 L68.5338722,42 Z M75.3124196,42 L75.3124196,33.3319065 L83.259682,33.3319065 L83.259682,34.933096 L76.9066668,34.933096 L76.9066668,36.859339 L82.0130526,36.859339 L82.0130526,38.4725675 L76.9066668,38.4725675 L76.9066668,40.3988105 L83.259682,40.3988105 L83.259682,42 L75.3124196,42 Z M85.2195273,42 L85.2195273,33.3319065 L86.9576163,33.3319065 L92.2557913,39.6644304 L92.2557913,33.3319065 L93.8500385,33.3319065 L93.8500385,42 L92.1119494,42 L86.8017877,35.6554371 L86.8017877,42 L85.2195273,42 Z M95.8937915,42 L95.8937915,33.3319065 L97.4640651,33.3319065 L97.4640651,42 L95.8937915,42 Z M99.2560948,42 L99.2560948,33.3319065 L100.994184,33.3319065 L104.122744,37.0760413 L107.239318,33.3319065 L108.989394,33.3319065 L108.989394,42 L107.395146,42 L107.395146,35.6433981 L104.122744,39.5560792 L100.838355,35.6554371 L100.838355,42 L99.2560948,42 Z M111.153015,42 L111.153015,33.3319065 L119.100277,33.3319065 L119.100277,34.933096 L112.747262,34.933096 L112.747262,36.859339 L117.853648,36.859339 L117.853648,38.4725675 L112.747262,38.4725675 L112.747262,40.3988105 L119.100277,40.3988105 L119.100277,42 L111.153015,42 Z M121.060122,42 L121.060122,33.3319065 L122.798212,33.3319065 L128.096386,39.6644304 L128.096386,33.3319065 L129.690634,33.3319065 L129.690634,42 L127.952545,42 L122.642383,35.6554371 L122.642383,42 L121.060122,42 Z M134.874934,42 L134.874934,34.933096 L131.350808,34.933096 L131.350808,33.3319065 L139.98132,33.3319065 L139.98132,34.933096 L136.469181,34.933096 L136.469181,42 L134.874934,42 Z M147.682378,42 C147.226877,42 146.835311,41.8354684 146.50767,41.5064002 C146.180028,41.1773321 146.01621,40.7840614 146.01621,40.3265764 L146.01621,39.6644304 L147.59847,39.6644304 L147.59847,39.9774448 C147.59847,40.2021743 147.612455,40.3285828 147.640424,40.3566739 C147.668394,40.3847651 147.794254,40.3988105 148.018009,40.3988105 L152.632935,40.3988105 L152.824059,40.3941287 C152.929721,40.3878863 152.991874,40.3754014 153.01052,40.3566739 C153.03849,40.3285828 153.052474,40.2021743 153.052474,39.9774448 L153.052474,38.8818941 L153.047812,38.690607 C153.041597,38.5853771 153.029166,38.5247367 153.01052,38.5086846 C152.987212,38.4886194 152.895925,38.4769149 152.736655,38.4735707 L147.682378,38.4725675 C147.226877,38.4725675 146.835311,38.3060294 146.50767,37.9729482 C146.180028,37.639867 146.01621,37.2445899 146.01621,36.7871049 L146.01621,35.0053301 C146.01621,34.5478451 146.180028,34.1545744 146.50767,33.8255063 C146.835311,33.4964381 147.226877,33.3319065 147.682378,33.3319065 L152.980553,33.3319065 C153.436055,33.3319065 153.82762,33.4964381 154.155262,33.8255063 C154.482903,34.1545744 154.646721,34.5478451 154.646721,35.0053301 L154.646721,35.6674761 L153.052474,35.6674761 L153.052474,35.3544616 L153.047812,35.1625057 C153.041597,35.056384 153.029166,34.99396 153.01052,34.9752325 C152.982551,34.9471414 152.85669,34.933096 152.632935,34.933096 L148.018009,34.933096 C147.794254,34.933096 147.668394,34.9471414 147.640424,34.9752325 C147.612455,35.0033237 147.59847,35.1297322 147.59847,35.3544616 L147.59847,36.4500123 C147.59847,36.6747418 147.612455,36.7991438 147.640424,36.8232219 C147.668394,36.8473001 147.794254,36.859339 148.018009,36.859339 L152.980553,36.859339 C153.436055,36.859339 153.82762,37.0258771 154.155262,37.3589583 C154.482903,37.6920394 154.646721,38.0873166 154.646721,38.5448016 L154.646721,40.3265764 C154.646721,40.7840614 154.482903,41.1773321 154.155262,41.5064002 C153.82762,41.8354684 153.436055,42 152.980553,42 L147.682378,42 Z M156.680109,42 L156.680109,40.4228885 L158.250382,40.4228885 L158.250382,42 L156.680109,42 Z M160.187392,42 L160.187392,33.3198675 L161.769653,33.3198675 L161.769653,40.3988105 L168.817903,40.3988105 L168.817903,42 L160.187392,42 Z M170.238342,42 L170.238342,40.4228885 L171.808615,40.4228885 L171.808615,42 L170.238342,42 Z" id="HIDRÀULICACATALANADEMANTENIMENTS.L." fill="#000000" fill-rule="nonzero"></path>
    </g>
</svg>