<?xml version="1.0" encoding="UTF-8"?>
<svg width="40px" height="40px" viewBox="0 0 40 40" version="1.1" xmlns="http://www.w3.org/2000/svg" xmlns:xlink="http://www.w3.org/1999/xlink">
    <!-- Generator: Sketch 58 (84663) - https://sketch.com -->
    <title>Atoms/ic_menu_mobile</title>
    <desc>Created with Sketch.</desc>
    <g id="Atoms/ic_menu_mobile" stroke="none" stroke-width="1" fill="none" fill-rule="evenodd">
        <g id="Icon" transform="translate(0.000000, -0.500000)">
            <rect id="Rectangle" fill="#FFFFFF" x="0" y="0.5" width="40" height="40"></rect>
            <path d="M28.5,27 C29.3284271,27 30,27.6715729 30,28.5 C30,29.3284271 29.3284271,30 28.5,30 L11.5,30 C10.6715729,30 10,29.3284271 10,28.5 C10,27.6715729 10.6715729,27 11.5,27 L28.5,27 Z M28.5,19 C29.3284271,19 30,19.6715729 30,20.5 C30,21.3284271 29.3284271,22 28.5,22 L11.5,22 C10.6715729,22 10,21.3284271 10,20.5 C10,19.6715729 10.6715729,19 11.5,19 L28.5,19 Z M28.5,11 C29.3284271,11 30,11.6715729 30,12.5 C30,13.3284271 29.3284271,14 28.5,14 L11.5,14 C10.6715729,14 10,13.3284271 10,12.5 C10,11.6715729 10.6715729,11 11.5,11 L28.5,11 Z" id="Combined-Shape" fill="#10ACE4"></path>
        </g>
    </g>
</svg>