<?xml version="1.0" encoding="UTF-8"?>
<svg width="40px" height="40px" viewBox="0 0 40 40" version="1.1" xmlns="http://www.w3.org/2000/svg" xmlns:xlink="http://www.w3.org/1999/xlink">
    <!-- Generator: Sketch 58 (84663) - https://sketch.com -->
    <title>Atoms/ic_menu_mobile_close</title>
    <desc>Created with Sketch.</desc>
    <g id="Atoms/ic_menu_mobile_close" stroke="none" stroke-width="1" fill="none" fill-rule="evenodd">
        <g id="Icon">
            <rect id="Rectangle" fill="#FFFFFF" x="0" y="0" width="40" height="40"></rect>
            <path d="M24.9497475,13.4289322 C25.5355339,12.8431458 26.4852814,12.8431458 27.0710678,13.4289322 C27.6568542,14.0147186 27.6568542,14.9644661 27.0710678,15.5502525 L27.0710678,15.5502525 L22.1205924,20.4995924 L27.0710678,25.4497475 C27.6568542,26.0355339 27.6568542,26.9852814 27.0710678,27.5710678 C26.4852814,28.1568542 25.5355339,28.1568542 24.9497475,27.5710678 L19.9995924,22.6205924 L15.0502525,27.5710678 C14.5010777,28.1202426 13.6320153,28.154566 13.0428546,27.6740381 L12.9289322,27.5710678 C12.3431458,26.9852814 12.3431458,26.0355339 12.9289322,25.4497475 L12.9289322,25.4497475 L17.8785924,20.4995924 L12.9289322,15.5502525 C12.3431458,14.9644661 12.3431458,14.0147186 12.9289322,13.4289322 C13.5147186,12.8431458 14.4644661,12.8431458 15.0502525,13.4289322 L19.9995924,18.3785924 Z" id="Combined-Shape" fill="#10ACE4"></path>
        </g>
    </g>
</svg>