<?xml version="1.0" encoding="UTF-8"?>
<svg width="24px" height="24px" viewBox="0 0 24 24" version="1.1" xmlns="http://www.w3.org/2000/svg" xmlns:xlink="http://www.w3.org/1999/xlink">
    <!-- Generator: Sketch 58 (84663) - https://sketch.com -->
    <title>Atoms/ic_pause</title>
    <desc>Created with Sketch.</desc>
    <g id="Atoms/ic_pause" stroke="none" stroke-width="1" fill="none" fill-rule="evenodd">
        <rect id="Surface" x="0" y="0" width="24" height="24"></rect>
        <path d="M8.5,7 C9.32842712,7 10,7.67157288 10,8.5 L10,15.5 C10,16.3284271 9.32842712,17 8.5,17 C7.67157288,17 7,16.3284271 7,15.5 L7,8.5 C7,7.67157288 7.67157288,7 8.5,7 Z M15.5,7 C16.3284271,7 17,7.67157288 17,8.5 L17,15.5 C17,16.3284271 16.3284271,17 15.5,17 C14.6715729,17 14,16.3284271 14,15.5 L14,8.5 C14,7.67157288 14.6715729,7 15.5,7 Z" id="Combined-Shape" fill="#000000"></path>
    </g>
</svg>