<?xml version="1.0" encoding="UTF-8"?>
<svg width="24px" height="24px" viewBox="0 0 24 24" version="1.1" xmlns="http://www.w3.org/2000/svg" xmlns:xlink="http://www.w3.org/1999/xlink">
    <!-- Generator: Sketch 58 (84663) - https://sketch.com -->
    <title>Atoms/ic_reestrablecer</title>
    <desc>Created with Sketch.</desc>
    <g id="Atoms/ic_reestrablecer" stroke="none" stroke-width="1" fill="none" fill-rule="evenodd">
        <rect id="Surface" x="0" y="0" width="24" height="24"></rect>
        <path d="M12.7868027,21.2187365 C13.9543754,21.1198909 15.0961918,20.7989403 16.1603136,20.262182 C17.9561369,19.3596258 19.4138175,17.9002627 20.3138449,16.0549331 C20.6164771,15.4344453 20.3588041,14.6861087 19.7383163,14.3834766 C19.1178285,14.0808445 18.3694919,14.3385174 18.0668598,14.9590052 C17.5242703,16.0714787 16.6964717,17.0194324 15.6202072,17.7369663 C15.5355615,17.7640618 15.4534909,17.8003547 15.375,17.8456715 C13.4086756,18.9809294 11.0427288,19.0423265 9.02439914,18.0579772 C6.20490201,16.4094058 4.75493581,13.3966686 5.42348309,10.4793911 C5.49265153,10.1805236 5.58201222,9.88661194 5.69276409,9.59513353 L5.79122708,9.35089806 L5.89685082,9.11436415 L6.01379309,8.87934248 L6.11043427,8.70025913 L6.25687117,8.45091877 C6.83834981,7.50818827 7.64467094,6.72032177 8.625,6.15432852 C11.5439893,4.46904927 15.2470861,5.20074315 17.3071867,7.82777508 L17.4438866,8.00209419 L16.5303301,8.91611652 C16.2959096,9.150537 16.1642136,9.46847939 16.1642136,9.8 C16.1642136,10.4903559 16.7238576,11.05 17.4142136,11.05 L21,11.05 C21.6903559,11.05 22.25,10.4903559 22.25,9.8 L22.25,6.21421356 C22.25,5.88269295 22.1183039,5.56475056 21.8838835,5.33033009 C21.3957281,4.84217472 20.6042719,4.84217472 20.1162222,5.33022439 L19.2281073,6.21940152 L19.052484,6.01205675 C18.1245641,4.91653403 16.9600364,4.06155487 15.651899,3.50057268 L15.3219266,3.36648301 L15.1007681,3.28430224 C14.142972,2.94217932 13.1451411,2.76347539 12.1412543,2.74963311 L11.9250493,2.7481985 L11.7045516,2.75286117 L11.487903,2.76247478 L11.0906851,2.79246036 C10.3377539,2.86636297 9.59558814,3.03309944 8.87790295,3.29192291 L8.45756243,3.45402067 L8.16517621,3.5816327 L7.90519261,3.70534052 L7.52462069,3.90380738 C6.78616411,4.31114355 6.1061564,4.81759474 5.5050916,5.41049601 L5.38896105,5.52664434 L5.19324305,5.73285755 L5.05022709,5.89202735 L4.88088532,6.09056563 L4.65388732,6.37478483 L4.54751562,6.51789733 L4.27106148,6.91431654 C3.96978525,7.37300931 3.71011473,7.85774341 3.49487221,8.36280254 C3.01594233,9.48013649 2.76646665,10.6634311 2.74964898,11.8577722 L2.74840124,12.0284129 L2.75379017,12.3239453 L2.76326483,12.5305861 L2.78446669,12.8237529 C2.87933598,13.8930772 3.16065416,14.9403934 3.624217,15.926164 C3.90051498,16.5165666 4.23779597,17.0755584 4.63132202,17.594058 L4.93227641,17.9710874 L5.17580607,18.2480965 L5.34992123,18.4332024 L5.63438144,18.7148172 L5.86852672,18.9290729 L6.11219945,19.1369866 L6.44961733,19.4027614 C7.03416394,19.8405966 7.66870439,20.2071481 8.33963725,20.4957454 L8.67807341,20.633517 L8.8992319,20.7156978 C9.85300964,21.0563853 10.8464799,21.2350205 11.8460897,21.2501526 L12.0029036,21.2520954 L12.3393578,21.2456706 L12.7868027,21.2187365 Z" id="Path" fill="#10ACE4" fill-rule="nonzero"></path>
    </g>
</svg>